<?xml version="1.0" encoding="UTF-8"?>
<svg version="1.1" xmlns="http://www.w3.org/2000/svg" width="356" height="356">
<path d="M0 0 C0.92345215 0.23106445 1.8469043 0.46212891 2.79833984 0.70019531 C16.45261956 4.20355254 29.41183962 8.64752259 42 15 C42.73911621 15.36963867 43.47823242 15.73927734 44.23974609 16.12011719 C84.40846922 36.51094548 116.26261902 73.22812166 130.97802734 115.83154297 C133.25744778 122.818786 135.21624852 129.87121357 137 137 C137.1949707 137.76231934 137.38994141 138.52463867 137.59082031 139.31005859 C143.00916628 161.67239086 142.69370644 190.73807838 137 213 C136.65340332 214.38517822 136.65340332 214.38517822 136.29980469 215.79833984 C132.79644746 229.45261956 128.35247741 242.41183962 122 255 C121.63036133 255.73911621 121.26072266 256.47823242 120.87988281 257.23974609 C100.48905452 297.40846922 63.77187834 329.26261902 21.16845703 343.97802734 C14.181214 346.25744778 7.12878643 348.21624852 0 350 C-0.76231934 350.1949707 -1.52463867 350.38994141 -2.31005859 350.59082031 C-24.67239086 356.00916628 -53.73807838 355.69370644 -76 350 C-77.38517822 349.65340332 -77.38517822 349.65340332 -78.79833984 349.29980469 C-92.45261956 345.79644746 -105.41183962 341.35247741 -118 335 C-118.73911621 334.63036133 -119.47823242 334.26072266 -120.23974609 333.87988281 C-160.40846922 313.48905452 -192.26261902 276.77187834 -206.97802734 234.16845703 C-209.25744778 227.181214 -211.21624852 220.12878643 -213 213 C-213.1949707 212.23768066 -213.38994141 211.47536133 -213.59082031 210.68994141 C-219.00916628 188.32760914 -218.69370644 159.26192162 -213 137 C-212.76893555 136.07654785 -212.53787109 135.1530957 -212.29980469 134.20166016 C-208.79644746 120.54738044 -204.35247741 107.58816038 -198 95 C-197.63036133 94.26088379 -197.26072266 93.52176758 -196.87988281 92.76025391 C-176.48905452 52.59153078 -139.77187834 20.73738098 -97.16845703 6.02197266 C-90.181214 3.74255222 -83.12878643 1.78375148 -76 0 C-75.23768066 -0.1949707 -74.47536133 -0.38994141 -73.68994141 -0.59082031 C-51.32760914 -6.00916628 -22.26192162 -5.69370644 0 0 Z " fill="#CDAF7A" transform="translate(216,3)"/>
<path d="M0 0 C5.875 0.875 5.875 0.875 7 2 C7.23481693 4.18292774 7.41363323 6.37203174 7.5625 8.5625 C7.64628906 9.76003906 7.73007813 10.95757812 7.81640625 12.19140625 C7.87699219 13.11824219 7.93757813 14.04507813 8 15 C7.01 15.33 6.02 15.66 5 16 C5.495 18.475 5.495 18.475 6 21 C6.87140625 20.74605469 7.7428125 20.49210937 8.640625 20.23046875 C16.38848526 17.991639 24.13388389 15.79160866 32 14 C32.89460938 13.79246094 33.78921875 13.58492187 34.7109375 13.37109375 C58.52463147 8.60168445 89.00975627 11.68851698 109.7890625 24.73046875 C116.6697616 29.59383393 122.50184346 35.44814698 124.6328125 43.796875 C126.36594721 54.19568328 123.61732145 63.55559963 117.6875 72.25 C116.47631912 73.84713369 115.24792512 75.4314089 114 77 C113.51144531 77.66386719 113.02289063 78.32773438 112.51953125 79.01171875 C100.28451116 94.51779819 78.42004067 105.19187907 60 111 C58.94039062 111.33837891 58.94039062 111.33837891 57.859375 111.68359375 C44.46408105 115.84152895 31.969133 116.65117158 18 116 C18.19335938 117.24910156 18.38671875 118.49820313 18.5859375 119.78515625 C20.03369019 129.39016929 21.21550408 138.93712752 21.9375 148.625 C22.51887573 156.03252869 23.39503178 163.27771194 24.875 170.5625 C25.02445068 171.32965332 25.17390137 172.09680664 25.32788086 172.88720703 C26.36533028 177.62877055 27.83036337 181.19759708 31 185 C33.07210692 186.11216029 33.07210692 186.11216029 35.25 186.375 C36.4875 186.58125 37.725 186.7875 39 187 C39.625 189.875 39.625 189.875 40 193 C38 195 38 195 36.01171875 195.15234375 C31.79590678 194.76264685 29.53779917 194.42088631 26.125 191.75 C12.44875141 174.05132536 8.40542363 146.21751088 6.45703125 124.60546875 C6.38516602 123.81551514 6.31330078 123.02556152 6.23925781 122.21166992 C6.07563274 120.16432248 5.95955642 118.11332497 5.84765625 116.0625 C5.286459 112.70026117 5.286459 112.70026117 1.93359375 111.0625 C0.96550781 110.711875 -0.00257813 110.36125 -1 110 C-1 109.34 -1 108.68 -1 108 C0.65 108 2.3 108 4 108 C3.01 103.38 2.02 98.76 1 94 C-0.464375 94.928125 -1.92875 95.85625 -3.4375 96.8125 C-12.36526565 102.10163847 -20.49488173 104.38798195 -31 103 C-34.71459668 101.245285 -36.88594908 99.26583485 -39.25 95.9375 C-39.75015625 95.24527344 -40.2503125 94.55304688 -40.765625 93.83984375 C-45.34908233 87.00817158 -43.64995264 75.89998492 -43 68 C-38.93189096 49.80756844 -23.48461459 38.04110379 -8.71313477 28.453125 C-3.26568166 25 -3.26568166 25 -1 25 C-1.00523682 24.31373535 -1.01047363 23.6274707 -1.01586914 22.92041016 C-1.03660956 19.82194936 -1.04965076 16.72350314 -1.0625 13.625 C-1.07087891 12.54476562 -1.07925781 11.46453125 -1.08789062 10.3515625 C-1.09111328 9.3203125 -1.09433594 8.2890625 -1.09765625 7.2265625 C-1.10289307 6.27346191 -1.10812988 5.32036133 -1.11352539 4.33837891 C-1 2 -1 2 0 0 Z " fill="#3D2E1D" transform="translate(197,64)"/>
<path d="M0 0 C6.23257261 37.63747731 1.26686845 72.33156487 -21 104 C-30.34006249 116.95155331 -41.54462289 127.4775271 -55 136 C-53.88625 135.319375 -52.7725 134.63875 -51.625 133.9375 C-49.7265625 132.77734375 -49.7265625 132.77734375 -48 132 C-44.64959766 133.67520117 -43.53853779 137.33829336 -41.875 140.5625 C-41.50246094 141.27341797 -41.12992188 141.98433594 -40.74609375 142.71679688 C-39.82559462 144.47518624 -38.91213039 146.237255 -38 148 C-37.67 143.71 -37.34 139.42 -37 135 C-36.67 135 -36.34 135 -36 135 C-36 140.61 -36 146.22 -36 152 C-39.96873434 150.67708855 -40.29905037 149.08850262 -42.1875 145.4375 C-42.71730469 144.42558594 -43.24710938 143.41367187 -43.79296875 142.37109375 C-44.19128906 141.58863281 -44.58960938 140.80617188 -45 140 C-45.33 143.96 -45.66 147.92 -46 152 C-49.11257569 152 -51.10765685 151.82638376 -54 151 C-54 149.68 -54 148.36 -54 147 C-56.31 147.33 -58.62 147.66 -61 148 C-61.33 149.32 -61.66 150.64 -62 152 C-62.99 151.67 -63.98 151.34 -65 151 C-64.01 147.37 -63.02 143.74 -62 140 C-62.94875 140.66 -63.8975 141.32 -64.875 142 C-68 144 -68 144 -70 144 C-68.68 146.64 -67.36 149.28 -66 152 C-66.99 152 -67.98 152 -69 152 C-69.99 150.02 -70.98 148.04 -72 146 C-72.99 146 -73.98 146 -75 146 C-75.495 148.97 -75.495 148.97 -76 152 C-76.66 152 -77.32 152 -78 152 C-78 150.35 -78 148.7 -78 147 C-80.44480079 147.18828772 -80.44480079 147.18828772 -83 148 C-83.29285889 148.65387695 -83.58571777 149.30775391 -83.88745117 149.98144531 C-85 152 -85 152 -86.9699707 152.72949219 C-87.78038818 152.83422852 -88.59080566 152.93896484 -89.42578125 153.046875 C-90.35293945 153.1698999 -91.28009766 153.2929248 -92.23535156 153.41967773 C-93.75854004 153.58318726 -93.75854004 153.58318726 -95.3125 153.75 C-96.89949707 153.92994507 -96.89949707 153.92994507 -98.51855469 154.11352539 C-120.6553517 156.37641942 -142.81543883 156.45320536 -164 149 C-164 149.99 -164 150.98 -164 152 C-164.99 152 -165.98 152 -167 152 C-167 150.35 -167 148.7 -167 147 C-167.94875 146.690625 -168.8975 146.38125 -169.875 146.0625 C-173 145 -173 145 -175 144 C-175 146.64 -175 149.28 -175 152 C-175.66 152 -176.32 152 -177 152 C-177.13487595 149.22754986 -177.23400807 146.46162912 -177.3125 143.6875 C-177.35439453 142.90181641 -177.39628906 142.11613281 -177.43945312 141.30664062 C-177.45556641 140.54931641 -177.47167969 139.79199219 -177.48828125 139.01171875 C-177.51446533 138.31522217 -177.54064941 137.61872559 -177.56762695 136.90112305 C-177 135 -177 135 -174.92831421 133.82879639 C-170.9363255 131.33571197 -167.88674655 128.16522121 -164.5793457 124.83813477 C-163.85031036 124.11260406 -163.12127502 123.38707336 -162.37014771 122.63955688 C-159.96697692 120.24517312 -157.57117752 117.84356597 -155.17578125 115.44140625 C-153.50649272 113.77346509 -151.8369074 112.1058209 -150.16703796 110.4384613 C-146.67116507 106.94553545 -143.17893158 103.44902137 -139.68920898 99.94995117 C-135.21353065 95.46286983 -130.72892258 90.9848379 -126.24155903 86.50944614 C-122.79361847 83.06872789 -119.35044989 79.62326609 -115.90871239 76.17634392 C-114.25674488 74.52304141 -112.60328808 72.87122561 -110.94832802 71.22091866 C-108.63817104 68.91583381 -106.33451095 66.60444682 -104.0324707 64.29125977 C-103.34621109 63.60904861 -102.65995148 62.92683746 -101.95289612 62.22395325 C-101.32631104 61.59172852 -100.69972595 60.95950378 -100.05415344 60.30812073 C-99.50941533 59.76262856 -98.96467722 59.2171364 -98.40343189 58.65511417 C-96.89574529 56.87704893 -95.95590693 55.11857649 -95 53 C-94.86464844 54.0209375 -94.72929687 55.041875 -94.58984375 56.09375 C-93.25055299 65.41320859 -91.25870305 74.44124789 -88.6875 83.5 C-88.41607178 84.48935547 -88.14464355 85.47871094 -87.86499023 86.49804688 C-85.86276973 93.32221014 -83.22743715 101.90505924 -77.24658203 106.28369141 C-73.87405491 107.85207581 -70.68157682 108.3346888 -67 108 C-66.25042843 104.52852158 -66.25042843 104.52852158 -66 101 C-67.2375 100.938125 -68.475 100.87625 -69.75 100.8125 C-72.80584723 100.3975084 -73.84677125 100.12423952 -76.3125 98.125 C-78.74892083 93.61310957 -79.89458444 88.98651745 -81 84 C-81.23529419 83.00286987 -81.23529419 83.00286987 -81.4753418 81.9855957 C-83.25570766 73.9277666 -83.86954807 65.76716074 -84.5625 57.5625 C-84.68893975 56.1112833 -84.81589004 54.660111 -84.94335938 53.20898438 C-85.18773291 50.41965711 -85.42938774 47.63011876 -85.66845703 44.84033203 C-86.09565516 39.89200608 -86.54388822 34.94573454 -87 30 C-86.43829102 29.99589111 -85.87658203 29.99178223 -85.29785156 29.98754883 C-56.10738562 29.61748714 -25.19055672 20.93370878 -2.6875 1.43359375 C-1 0 -1 0 0 0 Z " fill="#877A65" transform="translate(302,150)"/>
<path d="M0 0 C0.84981445 -0.01482422 1.69962891 -0.02964844 2.57519531 -0.04492188 C6.58930166 0.02265026 8.84705364 0.29212606 12.37890625 2.34375 C14.3125 4.5625 14.3125 4.5625 14.828125 6.53515625 C13.20063692 19.33965804 2.9074215 28.83543217 -5.37817383 38.01953125 C-6.88922446 39.74006307 -6.88922446 39.74006307 -8.6875 42.5625 C-9.3475 42.5625 -10.0075 42.5625 -10.6875 42.5625 C-10.93628906 43.13355469 -11.18507813 43.70460937 -11.44140625 44.29296875 C-12.87447469 46.90304011 -14.56818371 48.72147987 -16.625 50.875 C-29.60439128 65.0584585 -29.60439128 65.0584585 -36.6875 82.5625 C-36.60013016 86.06830455 -36.60013016 86.06830455 -35.6875 88.5625 C-34.553125 88.68625 -33.41875 88.81 -32.25 88.9375 C-31.074375 89.14375 -29.89875 89.35 -28.6875 89.5625 C-28.3575 90.2225 -28.0275 90.8825 -27.6875 91.5625 C-30.89601238 93.16675619 -34.20685844 93.05327692 -37.6875 92.5625 C-40.34433189 91.06501293 -42.53402751 89.71597249 -44.6875 87.5625 C-45.67018665 75.18064817 -40.14343708 67.01556309 -32.6875 57.5625 C-32.006875 56.68851563 -31.32625 55.81453125 -30.625 54.9140625 C-26.41149154 49.63168609 -21.94710975 44.65887112 -17.3125 39.75 C-2.57810725 24.8427954 -2.57810725 24.8427954 6.3125 6.5625 C-7.88490793 11.64016119 -20.17026681 19.10768063 -32.03613281 28.28564453 C-33.49075629 29.41037557 -34.95920174 30.51718207 -36.4296875 31.62109375 C-47.0135382 39.75341353 -56.22052555 48.79028304 -62.6875 60.5625 C-63.06777344 61.18511719 -63.44804688 61.80773437 -63.83984375 62.44921875 C-66.00926191 67.85776816 -65.84728412 75.47146821 -63.8125 80.89453125 C-58.41152271 89.0492963 -48.7085538 90.9703751 -39.8125 93.3125 C-38.67941406 93.62832031 -37.54632813 93.94414062 -36.37890625 94.26953125 C-25.99420369 97.32521196 -25.99420369 97.32521196 -15.6875 95.5625 C-13.0151379 95.42834528 -10.36499512 95.51931459 -7.6875 95.5625 C-8.1825 97.0475 -8.1825 97.0475 -8.6875 98.5625 C-10.75 99.25 -10.75 99.25 -12.6875 99.5625 C-12.03523438 99.9028125 -11.38296875 100.243125 -10.7109375 100.59375 C-3.83695049 104.40587259 0.77360395 108.48470789 4.3125 115.5625 C5.8022815 130.7086119 -3.75566288 144.55753366 -12.8125 155.9375 C-34.04753082 181.02344314 -65.88869442 212.63669535 -99.95703125 217.9140625 C-106.17082065 218.32758964 -111.81326846 216.43606149 -116.6875 212.5625 C-121.43068534 206.989569 -122.41679906 202.16910246 -122.125 195 C-122.11919922 194.18853516 -122.11339844 193.37707031 -122.10742188 192.54101562 C-121.79273556 176.94516176 -113.53106348 162.19279433 -103.6875 150.5625 C-102.55248047 149.21865234 -102.55248047 149.21865234 -101.39453125 147.84765625 C-85.08046521 129.17493006 -58.01171756 108.30351378 -33.6875 101.5625 C-32.3675 101.5625 -31.0475 101.5625 -29.6875 101.5625 C-29.6875 100.9025 -29.6875 100.2425 -29.6875 99.5625 C-30.60789062 99.60890625 -31.52828125 99.6553125 -32.4765625 99.703125 C-37.80379446 99.69776831 -42.88330965 98.45673973 -48.0625 97.3125 C-49.0525 97.10753906 -50.0425 96.90257812 -51.0625 96.69140625 C-57.34593671 95.32363968 -62.93033151 93.417282 -68.6875 90.5625 C-69.99267578 89.94955078 -69.99267578 89.94955078 -71.32421875 89.32421875 C-77.41044637 86.13619476 -82.45417913 82.2624626 -84.6875 75.5625 C-85.69355204 60.51041366 -81.93532454 49.72808833 -72.546875 37.85546875 C-54.81223662 17.67146598 -27.55250861 0.34027798 0 0 Z " fill="#3D2E1C" transform="translate(158.6875,53.4375)"/>
<path d="M0 0 C5.8876278 5.81350299 8.64092842 11.46730423 9.30078125 19.796875 C9.35336475 37.53504265 4.04174902 48.00038458 -8 61 C-8.4846875 61.56074219 -8.969375 62.12148437 -9.46875 62.69921875 C-21.99348987 76.4061407 -44.38994099 88.115799 -63.00878906 89.10693359 C-67.34500134 89.23153739 -71.66452548 89.16190569 -76 89 C-76.33747251 85.12534889 -76.66924222 81.25022962 -77 77.375 C-77.09539062 76.28058594 -77.19078125 75.18617188 -77.2890625 74.05859375 C-77.42441406 72.46337891 -77.42441406 72.46337891 -77.5625 70.8359375 C-77.64628906 69.86188965 -77.73007813 68.8878418 -77.81640625 67.88427734 C-78.35362244 59.44455392 -78.35362244 59.44455392 -75.8125 56.25 C-75.35746094 55.755 -74.90242187 55.26 -74.43359375 54.75 C-66.7382691 45.3562522 -64.39460301 33.29813912 -64.64453125 21.50390625 C-65.2445531 15.58940516 -67.29523638 12.01472064 -71.0625 7.5625 C-74.7698934 4.57266661 -78.39806984 4.66531417 -83 5 C-85.02350324 8.03525486 -85.32124018 9.19426202 -85.625 12.6875 C-85.69976562 13.49574219 -85.77453125 14.30398437 -85.8515625 15.13671875 C-85.90054688 15.75160156 -85.94953125 16.36648437 -86 17 C-86.66 16.67 -87.32 16.34 -88 16 C-88 11.38 -88 6.76 -88 2 C-62.26545508 -9.69752042 -24.7840643 -17.96454975 0 0 Z " fill="#C3AB7B" transform="translate(290,89)"/>
<path d="M0 0 C6.02183979 25.82921363 -2.45149416 52.96751189 -16 75 C-18.74270592 78.95537037 -21.69944194 82.50140845 -25 86 C-25.8765625 86.94359375 -26.753125 87.8871875 -27.65625 88.859375 C-44.55862037 106.64080019 -69.29840369 118.76735496 -94.00878906 120.17089844 C-97.09193706 120.23073682 -100.16655884 120.22448572 -103.25 120.1875 C-104.28640625 120.18685547 -105.3228125 120.18621094 -106.390625 120.18554688 C-111.69458466 120.15510323 -116.77485214 119.92251904 -122 119 C-122 118.34 -122 117.68 -122 117 C-120.60568237 115.62815857 -120.60568237 115.62815857 -118.63232422 114.00561523 C-113.43210065 109.58028304 -108.67781129 104.76655728 -103.8828125 99.91015625 C-102.93533882 98.95572108 -101.98748626 98.00166189 -101.03927612 97.04795837 C-97.0485082 93.03294835 -93.06373221 89.01202764 -89.08300781 84.98706055 C-86.63357292 82.51092088 -84.17934973 80.03961278 -81.7220726 77.57125664 C-80.33676614 76.17671953 -78.95705712 74.77662927 -77.5774231 73.3764801 C-76.74250336 72.53818161 -75.90758362 71.69988312 -75.04736328 70.83618164 C-74.31204376 70.09340469 -73.57672424 69.35062775 -72.81912231 68.58534241 C-71 67 -71 67 -69 67 C-68.78085938 67.89460938 -68.56171875 68.78921875 -68.3359375 69.7109375 C-65.25130604 82.42036473 -65.25130604 82.42036473 -57.234375 92.27734375 C-53.87276813 93.86314525 -50.6768119 94.33425563 -47 94 C-46.25042843 90.52852158 -46.25042843 90.52852158 -46 87 C-47.2375 86.938125 -48.475 86.87625 -49.75 86.8125 C-52.80584723 86.3975084 -53.84677125 86.12423952 -56.3125 84.125 C-58.74892083 79.61310957 -59.89458444 74.98651745 -61 70 C-61.15686279 69.33524658 -61.31372559 68.67049316 -61.4753418 67.9855957 C-63.25570766 59.9277666 -63.86954807 51.76716074 -64.5625 43.5625 C-64.68893975 42.1112833 -64.81589004 40.660111 -64.94335938 39.20898438 C-65.18773291 36.41965711 -65.42938774 33.63011876 -65.66845703 30.84033203 C-66.09565516 25.89200608 -66.54388822 20.94573454 -67 16 C-66.43829102 15.99589111 -65.87658203 15.99178223 -65.29785156 15.98754883 C-43.4818864 15.71097726 -24.12705619 11.23269302 -4.6484375 1.2890625 C-2 0 -2 0 0 0 Z " fill="#C6AE7F" transform="translate(282,164)"/>
<path d="M0 0 C28.27867593 -1.01017473 56.74734443 2.15169533 80 20 C80 20.33 80 20.66 80 21 C79.35788574 21.08975098 78.71577148 21.17950195 78.05419922 21.27197266 C62.67409912 23.46522792 47.88148075 26.531302 33 31 C33 29.02 33 27.04 33 25 C33.99 24.505 33.99 24.505 35 24 C34.67 19.71 34.34 15.42 34 11 C32.02 10.34 30.04 9.68 28 9 C28.08024414 10.05743408 28.08024414 10.05743408 28.16210938 11.13623047 C29.35466313 30.7075763 29.35466313 30.7075763 25.54345703 36.03662109 C21.82638084 39.23934724 17.47943499 41.16369326 12.99707031 43.07763672 C0.7149214 48.75024779 -7.26868608 60.70618358 -12.61328125 72.5859375 C-14.49151276 77.71490834 -14.47765187 82.7154478 -14.4375 88.125 C-14.45748047 89.08792969 -14.47746094 90.05085938 -14.49804688 91.04296875 C-14.49394118 97.01264663 -13.89918743 100.41362904 -10 105 C-10.33 105.66 -10.66 106.32 -11 107 C-12.2684375 105.8553125 -12.2684375 105.8553125 -13.5625 104.6875 C-16.82003668 101.9508582 -20.03723128 100.50585211 -24 99 C-23.67 98.34 -23.34 97.68 -23 97 C-21.66666667 96.66666667 -20.33333333 96.33333333 -19 96 C-18.67 95.34 -18.34 94.68 -18 94 C-18.92619141 94.2165625 -18.92619141 94.2165625 -19.87109375 94.4375 C-20.71800781 94.623125 -21.56492188 94.80875 -22.4375 95 C-23.67306641 95.2784375 -23.67306641 95.2784375 -24.93359375 95.5625 C-33.82839715 96.83156749 -41.38032153 95.22761866 -50 92.875 C-51.1240625 92.59140625 -52.248125 92.3078125 -53.40625 92.015625 C-61.795848 89.76141058 -68.32004148 86.59020343 -74.5625 80.5 C-77.26454822 73.92109999 -77.25708589 66.82215184 -75.03515625 60.06640625 C-71.13654182 52.28047772 -65.05815149 46.14065918 -59 40 C-58.10039551 39.05991089 -58.10039551 39.05991089 -57.18261719 38.10083008 C-52.4565298 33.23370912 -47.48155376 29.05208369 -42 25.0625 C-41.17910889 24.46131348 -40.35821777 23.86012695 -39.51245117 23.24072266 C-32.012048 17.84124237 -24.20543419 13.23239129 -16 9 C-14.96431885 8.4416748 -14.96431885 8.4416748 -13.90771484 7.87207031 C-13.20984863 7.50436523 -12.51198242 7.13666016 -11.79296875 6.7578125 C-10.84780396 6.25338623 -10.84780396 6.25338623 -9.88354492 5.73876953 C-8 5 -8 5 -4 5 C-4.45445223 10.18702369 -6.32719976 13.54089001 -9.375 17.625 C-10.03786011 18.53306396 -10.03786011 18.53306396 -10.71411133 19.45947266 C-15.37384472 25.71769328 -20.64219063 31.34315011 -26 37 C-28.37386437 39.63265042 -30.68637051 42.31445094 -33 45 C-33.85464844 45.96421875 -34.70929688 46.9284375 -35.58984375 47.921875 C-49.62834168 63.88895299 -49.62834168 63.88895299 -54.4375 83.94140625 C-54.12090956 86.33256325 -54.12090956 86.33256325 -51.5 88.5625 C-47.20977698 90.32455588 -44.59473068 90.38938396 -40 90 C-39.67 89.67 -39.34 89.34 -39 89 C-40.11375 88.896875 -41.2275 88.79375 -42.375 88.6875 C-43.57125 88.460625 -44.7675 88.23375 -46 88 C-48 85 -48 85 -47.8125 81.8125 C-44.92274282 68.25287015 -35.87821402 58.81742091 -26.98657227 48.63232422 C-24.8245854 46.15527752 -22.82683641 43.74025461 -21 41 C-20.34 41 -19.68 41 -19 41 C-18.75378906 40.43152344 -18.50757813 39.86304688 -18.25390625 39.27734375 C-16.79048819 36.61948478 -15.03426524 34.75541321 -12.9375 32.5625 C-1.98372602 20.65343912 -1.98372602 20.65343912 3.3125 5.875 C2.95695854 2.60401853 2.35506927 2.10029924 0 0 Z " fill="#8E7E68" transform="translate(169,55)"/>
<path d="M0 0 C4.80465265 4.02249989 7.36211822 7.321564 8.0625 13.625 C7.82560143 31.96771793 -9.42970777 49.75966651 -21.3125 62.25 C-21.85535645 62.82540527 -22.39821289 63.40081055 -22.95751953 63.99365234 C-33.84245988 75.464409 -44.73503672 84.71970781 -59.3125 91.25 C-59.97121094 91.55679688 -60.62992188 91.86359375 -61.30859375 92.1796875 C-67.50745733 94.97917428 -73.11666446 95.45374207 -79.8125 95.5 C-80.55886719 95.520625 -81.30523437 95.54125 -82.07421875 95.5625 C-86.66048465 95.59496914 -89.57891596 95.19904105 -93.3125 92.25 C-96.88917618 87.19331988 -97.17557789 82.21756712 -96.3125 76.25 C-92.50057791 62.59484798 -84.45165652 51.82677664 -75.3125 41.25 C-74.47847656 40.26902344 -73.64445312 39.28804687 -72.78515625 38.27734375 C-66.05858522 30.53947445 -58.55189054 24.31702757 -50.3125 18.25 C-49.47074219 17.61449219 -48.62898438 16.97898438 -47.76171875 16.32421875 C-14.76424997 -7.79998112 -14.76424997 -7.79998112 0 0 Z " fill="#E0BB83" transform="translate(146.3125,158.75)"/>
<path d="M0 0 C1.26305335 5.07476794 2.27036084 9.72796354 2 15 C0.35 15 -1.3 15 -3 15 C-3 15.66 -3 16.32 -3 17 C-2.030625 17.309375 -1.06125 17.61875 -0.0625 17.9375 C3 19 3 19 4 20 C4.67722591 23.30578072 5.09013268 26.65952681 5.5625 30 C5.70107422 30.92167969 5.83964844 31.84335938 5.98242188 32.79296875 C6.11326172 33.70691406 6.24410156 34.62085938 6.37890625 35.5625 C6.4982251 36.38878906 6.61754395 37.21507812 6.74047852 38.06640625 C6.82612061 39.03449219 6.9117627 40.00257813 7 41 C7.09088017 41.64930449 7.18176033 42.29860899 7.27539444 42.96758938 C7.56847306 46.45302556 7.59359734 49.01040768 5.76142788 52.0648365 C3.90118851 54.22689496 1.94318022 56.20457941 -0.11254883 58.18188477 C-0.86850845 58.94397751 -1.62446808 59.70607025 -2.40333557 60.49125671 C-4.90003199 62.99695587 -7.42739981 65.4689964 -9.95703125 67.94140625 C-11.70036927 69.67556931 -13.44193866 71.41151201 -15.18180847 73.14915466 C-18.82785255 76.78140404 -22.48811428 80.39843726 -26.16040039 84.00415039 C-30.87561432 88.63432835 -35.56422758 93.29032295 -40.24379444 97.95649815 C-43.83757886 101.5378371 -47.43977819 105.11060158 -51.04517174 108.68025017 C-52.77738147 110.39533117 -54.50816918 112.1118496 -56.23752785 113.82980537 C-58.65036897 116.22210811 -61.07305897 118.603931 -63.49926758 120.98266602 C-64.21783936 121.69788422 -64.93641113 122.41310242 -65.67675781 123.1499939 C-66.33718582 123.79329147 -66.99761383 124.43658905 -67.67805481 125.09938049 C-68.25048825 125.66288995 -68.8229217 126.2263994 -69.41270161 126.8069849 C-71 128 -71 128 -74 128 C-74.89287434 131.23666947 -75.01382062 134.05251996 -74.96484375 137.41015625 C-74.95582031 138.28542969 -74.94679687 139.16070312 -74.9375 140.0625 C-74.92589844 140.94035156 -74.91429687 141.81820312 -74.90234375 142.72265625 C-75 145 -75 145 -76 147 C-79.3 147 -82.6 147 -86 147 C-86 146.34 -86 145.68 -86 145 C-83.03 145 -80.06 145 -77 145 C-77 144.34 -77 143.68 -77 143 C-79.64 143 -82.28 143 -85 143 C-85 138.05 -85 133.1 -85 128 C-85.66 128 -86.32 128 -87 128 C-87 133.94 -87 139.88 -87 146 C-88.32 146.33 -89.64 146.66 -91 147 C-91.103125 146.030625 -91.20625 145.06125 -91.3125 144.0625 C-91.84885161 140.1897259 -93.04050778 136.67861029 -94.37890625 133.015625 C-95 131 -95 131 -95 128 C-95.99 128.33 -96.98 128.66 -98 129 C-99.03865096 131.36695387 -99.89577096 133.61555495 -100.6875 136.0625 C-100.91244141 136.72572266 -101.13738281 137.38894531 -101.36914062 138.07226562 C-101.92334719 139.71130207 -102.46306085 141.35522593 -103 143 C-103.99 143 -104.98 143 -106 143 C-106.33 143.99 -106.66 144.98 -107 146 C-109.31 146.33 -111.62 146.66 -114 147 C-113.1028125 146.5978125 -113.1028125 146.5978125 -112.1875 146.1875 C-109.83743942 144.91175283 -108.60565531 144.14087374 -107 142 C-106.41781668 138.5776116 -106.41781668 138.5776116 -106.3125 134.8125 C-106.24675781 133.54019531 -106.18101563 132.26789063 -106.11328125 130.95703125 C-106.07589844 129.98121094 -106.03851563 129.00539063 -106 128 C-106.66 128 -107.32 128 -108 128 C-107.97679688 128.91523438 -107.95359375 129.83046875 -107.9296875 130.7734375 C-107.90261719 132.55621094 -107.90261719 132.55621094 -107.875 134.375 C-107.85179688 135.55835938 -107.82859375 136.74171875 -107.8046875 137.9609375 C-108 141 -108 141 -110 143 C-112.5625 143.1875 -112.5625 143.1875 -115 143 C-116.83384107 141.16615893 -116.49393441 138.61541963 -116.66491699 136.13215637 C-116.58118056 128.94219294 -114.26445341 125.7466697 -109.33656311 120.71910095 C-108.34541362 119.77394178 -107.35364798 118.82942839 -106.36132812 117.88549805 C-105.32406441 116.8519074 -104.28966697 115.81543359 -103.25791931 114.77633667 C-100.46610653 111.98081334 -97.63622725 109.22702898 -94.7974453 106.4793241 C-91.83127089 103.59475237 -88.90218617 100.6729945 -85.96887207 97.75508118 C-80.41655666 92.24307448 -74.83196464 86.76502632 -69.23482752 81.29857999 C-62.86102124 75.07038648 -56.52435647 68.80496854 -50.19044971 62.53624284 C-37.16769371 49.64914991 -24.09931748 36.80923984 -11 24 C-12.69586126 20.36696916 -14.73800488 18.05450954 -17.625 15.25 C-18.44226563 14.45078125 -19.25953125 13.6515625 -20.1015625 12.828125 C-20.72804688 12.22484375 -21.35453125 11.6215625 -22 11 C-19.66655289 8.66655289 -17.99233366 8.20779723 -14.875 7.1875 C-10.30367854 5.59355239 -6.46098994 3.66336461 -2.4609375 0.953125 C-1 0 -1 0 0 0 Z " fill="#D2B483" transform="translate(199,157)"/>
<path d="M0 0 C0.928125 0.639375 1.85625 1.27875 2.8125 1.9375 C6.13614787 3.90632755 8.36205498 4.09425009 12.1875 4 C18.83383399 4.2861616 22.00049078 8.18043624 26.29174805 12.78320312 C27.54660414 14.17206893 28.77605794 15.58381573 30 17 C28.51226574 20.47740904 26.54669717 22.67300629 23.84921265 25.30381775 C22.97980545 26.15718719 22.11039825 27.01055664 21.21464539 27.88978577 C20.24909492 28.82752632 19.28350207 29.76522322 18.31787109 30.70288086 C17.30228861 31.69661029 16.2872414 32.69088703 15.27268982 33.68566895 C13.08846597 35.82631302 10.90171763 37.96433436 8.71335983 40.10075188 C5.25016808 43.4843048 1.80054619 46.88146381 -1.64584351 50.28211975 C-2.5192126 51.14375029 -2.5192126 51.14375029 -3.41022551 52.02278751 C-4.60076242 53.19741475 -5.79125861 54.37208327 -6.98171496 55.54679215 C-15.00334184 63.46162558 -23.0325662 71.36809883 -31.10351562 79.23266602 C-36.55035003 84.54041773 -41.97358745 89.87106699 -47.37094629 95.22913653 C-50.22586424 98.06144607 -53.09130469 100.8808481 -55.98595047 103.67259026 C-58.7115974 106.30172148 -61.40491668 108.96014344 -64.07723808 111.64342499 C-65.05922378 112.61867907 -66.05229116 113.58292935 -67.05724907 114.5344944 C-72.94426806 120.11543864 -72.94426806 120.11543864 -75.57484055 127.56622505 C-75.58736815 130.7721668 -75.42727409 133.82507951 -75 137 C-73.33388095 137.042721 -71.66617115 137.04063832 -70 137 C-68.12175109 135.12175109 -68.60897603 131.96064724 -68.4375 129.4375 C-68.35371094 128.23996094 -68.26992187 127.04242188 -68.18359375 125.80859375 C-68.09271484 124.41833984 -68.09271484 124.41833984 -68 123 C-67.34 123 -66.68 123 -66 123 C-65.91902676 125.27024968 -65.86082296 127.54132075 -65.8125 129.8125 C-65.77769531 131.07707031 -65.74289063 132.34164062 -65.70703125 133.64453125 C-66 137 -66 137 -67.29296875 138.921875 C-70.21264273 140.76587962 -72.66608693 140.41673913 -76 140 C-79.51805937 137.06828386 -79.57900541 133.37834373 -80 129 C-80.24234375 129.62648438 -80.4846875 130.25296875 -80.734375 130.8984375 C-81.06953125 131.71570313 -81.4046875 132.53296875 -81.75 133.375 C-82.07484375 134.18710937 -82.3996875 134.99921875 -82.734375 135.8359375 C-84.19483944 138.33315139 -85.33869601 138.98244259 -88 140 C-87.67 140.66 -87.34 141.32 -87 142 C-84.47266765 142.65555119 -84.47266765 142.65555119 -82 143 C-82 143.33 -82 143.66 -82 144 C-85.79392709 144.35292345 -87.5073063 144.34373979 -90.6875 142.125 C-91.450625 141.42375 -92.21375 140.7225 -93 140 C-93.99 139.34 -94.98 138.68 -96 138 C-97.50913724 133.47258828 -97.77429281 128.93573202 -96 124.5 C-95.67 124.005 -95.34 123.51 -95 123 C-96.65 121.35 -98.3 119.7 -100 118 C-85.97242714 103.97242714 -85.97242714 103.97242714 -78.55517578 100.234375 C-45.47431649 83.40129274 -11.14749927 54.4610432 2.16796875 18.87890625 C3.66388337 13.70290121 3.98058347 8.9203093 1.5 4.0625 C1.005 3.381875 0.51 2.70125 0 2 C0 1.34 0 0.68 0 0 Z " fill="#8A7C67" transform="translate(159,162)"/>
<path d="M0 0 C5.8876278 5.81350299 8.64092842 11.46730423 9.30078125 19.796875 C9.35116084 36.79159107 4.67244182 46.62101966 -6.421875 59.50390625 C-8 61 -8 61 -11 62 C-11.20568604 61.48727539 -11.41137207 60.97455078 -11.62329102 60.44628906 C-22.09413049 34.51739019 -36.84898351 10.73206669 -63.109375 -1.44140625 C-65.39009668 -2.36593608 -67.66324309 -3.23005475 -70 -4 C-70 -4.33 -70 -4.66 -70 -5 C-47.02858691 -9.96866581 -20.54237288 -14.88999041 0 0 Z " fill="#877A66" transform="translate(290,89)"/>
<path d="M0 0 C1.53279785 4.73988259 0.92256867 9.57945317 0.7421875 14.4921875 C1.12128002 19.65014328 2.85916326 22.82991103 6.4375 26.5 C20.37271216 37.09621267 38.21612558 39.25807992 55 42 C55 42.66 55 43.32 55 44 C54.08863281 44.29390625 53.17726563 44.5878125 52.23828125 44.890625 C30.42341837 52.29782503 10.85529394 65.36128739 -5.88671875 81.0625 C-8.17351526 83.15908238 -10.57649231 85.06434126 -13 87 C-14.68528688 88.64783606 -16.35697047 90.31002677 -18 92 C-25.47597488 61.43367233 -17.46846074 29.34334879 -1.72265625 2.83203125 C-1.15417969 1.89746094 -0.58570312 0.96289062 0 0 Z " fill="#8C7B63" transform="translate(74,111)"/>
<path d="M0 0 C28.27867593 -1.01017473 56.74734443 2.15169533 80 20 C80 20.33 80 20.66 80 21 C79.35788574 21.08975098 78.71577148 21.17950195 78.05419922 21.27197266 C62.67409912 23.46522792 47.88148075 26.531302 33 31 C33 29.02 33 27.04 33 25 C33.66 24.67 34.32 24.34 35 24 C34.67 19.71 34.34 15.42 34 11 C32.02 10.34 30.04 9.68 28 9 C28.08024414 10.05743408 28.08024414 10.05743408 28.16210938 11.13623047 C29.35466313 30.7075763 29.35466313 30.7075763 25.54345703 36.03662109 C21.82803834 39.2379191 17.48634984 41.15686198 13.00585938 43.06884766 C6.17565734 46.23953784 0.46863641 52.04181812 -4 58 C-9.66666667 52.33333333 -15.33333333 46.66666667 -21 41 C-20.34 41 -19.68 41 -19 41 C-18.75378906 40.43152344 -18.50757813 39.86304688 -18.25390625 39.27734375 C-16.79048819 36.61948478 -15.03426524 34.75541321 -12.9375 32.5625 C-1.98372602 20.65343912 -1.98372602 20.65343912 3.3125 5.875 C2.95695854 2.60401853 2.35506927 2.10029924 0 0 Z " fill="#877A65" transform="translate(169,55)"/>
<path d="M0 0 C0.24456979 7.0285055 0.45692842 14.05745675 0.64697266 21.08764648 C0.71540775 23.47882061 0.79120061 25.86979599 0.87451172 28.26049805 C0.99302671 31.69814661 1.08501364 35.13564273 1.171875 38.57421875 C1.21439392 39.64210129 1.25691284 40.70998383 1.30072021 41.81022644 C1.4514237 49.23058091 1.4514237 49.23058091 -0.88574219 53.21411133 C-3 55 -3 55 -5 55 C-5.33 55.99 -5.66 56.98 -6 58 C-7.90759596 59.61900353 -9.791933 61.1001534 -11.8125 62.5625 C-12.87082031 63.34753906 -13.92914063 64.13257813 -15.01953125 64.94140625 C-20.03250509 68.40384034 -22.76035996 69.51407385 -28.8125 68.66796875 C-32.55062187 67.52650653 -33.99276524 65.22374068 -36 62 C-39.04972966 54.32718192 -39.67374279 44.96081126 -36.375 37.25 C-35.6144656 35.81637941 -34.82136947 34.39965451 -34 33 C-33.57589844 32.20207031 -33.15179688 31.40414062 -32.71484375 30.58203125 C-27.57948108 21.35554399 -12.12061319 0 0 0 Z " fill="#C6AD7D" transform="translate(196,95)"/>
<path d="M0 0 C2.78136138 2.78136138 2.9370181 5.89720992 3.6875 9.625 C6.94003277 24.36553488 13.48607025 36.64418358 22 49 C18.51143758 52.00760253 15.26543267 53.96282888 11 55.6875 C9.989375 56.10386719 8.97875 56.52023438 7.9375 56.94921875 C2.41630095 58.92422213 -2.69278062 59.20988104 -8.5 59.25 C-9.24636719 59.270625 -9.99273437 59.29125 -10.76171875 59.3125 C-15.34798465 59.34496914 -18.26641596 58.94904105 -22 56 C-25.57667618 50.94331988 -25.86307789 45.96756712 -25 40 C-21.16386747 26.25812082 -13.04832955 15.73757407 -4 5 C-2.66189741 3.33715995 -1.32711339 1.67162364 0 0 Z " fill="#8E7D66" transform="translate(75,195)"/>
<path d="M0 0 C0.66 0.66 1.32 1.32 2 2 C1.73955936 6.21983455 0.29026447 8.20214119 -2.66186523 11.1159668 C-3.43614365 11.88994308 -4.21042206 12.66391937 -5.00816345 13.46134949 C-6.27062645 14.69284477 -6.27062645 14.69284477 -7.55859375 15.94921875 C-8.84782494 17.22996025 -8.84782494 17.22996025 -10.1631012 18.53657532 C-12.91199111 21.26307737 -15.67445042 23.97535565 -18.4375 26.6875 C-20.29583447 28.52577061 -22.15326765 30.36495283 -24.00976562 32.20507812 C-28.09342751 36.24938165 -32.18567418 40.28476334 -36.28562927 44.31254578 C-37.52899706 45.53639205 -38.76635435 46.76635435 -40 48 C-41.33333333 33.33333333 -42.66666667 18.66666667 -44 4 C-43.41734375 3.9906543 -42.8346875 3.98130859 -42.234375 3.97167969 C-30.80817597 3.74261674 -20.27232321 3.10908234 -9.3125 -0.2578125 C-5.75728002 -1.05438301 -3.49487717 -0.96515503 0 0 Z " fill="#887B67" transform="translate(259,176)"/>
<path d="M0 0 C-0.45445223 5.18702369 -2.32719976 8.54089001 -5.375 12.625 C-5.81690674 13.23037598 -6.25881348 13.83575195 -6.71411133 14.45947266 C-11.3738763 20.7177357 -16.64239541 26.34290198 -22 32 C-28.48042137 39.20046819 -34.70363181 46.63872881 -41 54 C-45.1413833 50.5191826 -49.13790851 46.98304674 -52.9375 43.125 C-53.70964844 42.34382813 -54.48179688 41.56265625 -55.27734375 40.7578125 C-55.84582031 40.17773438 -56.41429688 39.59765625 -57 39 C-53.37610143 30.7881821 -45.06540953 25.20484538 -38 20.0625 C-37.17910889 19.46131348 -36.35821777 18.86012695 -35.51245117 18.24072266 C-28.012048 12.84124237 -20.20543419 8.23239129 -12 4 C-10.96431885 3.4416748 -10.96431885 3.4416748 -9.90771484 2.87207031 C-9.20984863 2.50436523 -8.51198242 2.13666016 -7.79296875 1.7578125 C-7.16285889 1.42152832 -6.53274902 1.08524414 -5.88354492 0.73876953 C-4 0 -4 0 0 0 Z " fill="#D9B884" transform="translate(165,60)"/>
<path d="M0 0 C3.67284252 0.50925968 6.06297585 1.03382036 9.375 2.8125 C20.58075722 8.68116982 34.65451785 9.98316381 47 12 C47 12.66 47 13.32 47 14 C45.63294922 14.44085938 45.63294922 14.44085938 44.23828125 14.890625 C27.92103193 20.43253441 13.0453741 29.17137296 -0.55883789 39.69799805 C-4.82629456 43 -4.82629456 43 -7 43 C-7.64234657 27.98812277 -5.3387366 14.06499641 0 0 Z " fill="#E7BE85" transform="translate(82,141)"/>
<path d="M0 0 C1.875 0.25 1.875 0.25 4 1 C4.6837045 2.32467746 5.34964186 3.65863633 6 5 C7.32407669 5.68486725 8.65909241 6.34870203 10 7 C12.75 9.5 12.75 9.5 15 12 C15 12.66 15 13.32 15 14 C15.5775 14.2475 16.155 14.495 16.75 14.75 C19.32939979 16.18299988 21.06121592 17.78424676 23 20 C23 20.66 23 21.32 23 22 C23.66 22 24.32 22 25 22 C25 22.66 25 23.32 25 24 C25.598125 24.268125 26.19625 24.53625 26.8125 24.8125 C29.01819033 26.00987475 30.43583187 27.04478984 32 29 C32 29.99 32 30.98 32 32 C19.96361102 38.12705072 8.28852445 39.49625195 -5 39 C-5.33747251 35.12534889 -5.66924222 31.25022962 -6 27.375 C-6.09539062 26.28058594 -6.19078125 25.18617188 -6.2890625 24.05859375 C-6.42441406 22.46337891 -6.42441406 22.46337891 -6.5625 20.8359375 C-6.64628906 19.86188965 -6.73007813 18.8878418 -6.81640625 17.88427734 C-7.35186052 9.47223385 -7.35186052 9.47223385 -4.625 5.8125 C-3.75875 4.884375 -2.8925 3.95625 -2 3 C-1.34 2.01 -0.68 1.02 0 0 Z " fill="#877A66" transform="translate(219,139)"/>
<path d="M0 0 C12.33288783 -0.65548813 23.84517459 1.63934825 34 9 C40.40201984 15.32141887 43.20087209 21.75172749 43.32861328 30.84936523 C43.3232959 31.51782471 43.31797852 32.18628418 43.3125 32.875 C43.30839111 33.92119507 43.30839111 33.92119507 43.30419922 34.98852539 C43.19104358 40.58582753 42.31446138 44.9259885 40 50 C39.01 50.495 39.01 50.495 38 51 C37.53851563 50.00742188 37.07703125 49.01484375 36.6015625 47.9921875 C28.45544053 30.85643537 17.37368707 15.2402793 2.578125 3.12890625 C1.72734375 2.42636719 0.8765625 1.72382812 0 1 C0 0.67 0 0.34 0 0 Z " fill="#C6AE7F" transform="translate(256,80)"/>
<path d="M0 0 C4.25314786 1.67642324 7.12101814 4.7175909 10.3125 7.875 C10.87517578 8.40480469 11.43785156 8.93460938 12.01757812 9.48046875 C13.61328125 11.0546875 13.61328125 11.0546875 16 14 C15.56983553 17.11537777 14.33054656 19.28726081 12.6875 21.9375 C8.45544251 29.34666731 6.25931456 37.60037188 5 46 C-0.37322976 41.48931502 -5.48975137 36.78504366 -10.5 31.875 C-11.23992187 31.17246094 -11.97984375 30.46992187 -12.7421875 29.74609375 C-13.43570313 29.06417969 -14.12921875 28.38226563 -14.84375 27.6796875 C-15.47474609 27.06851074 -16.10574219 26.45733398 -16.75585938 25.82763672 C-18 24 -18 24 -17.79296875 21.90917969 C-14.36427663 13.65413893 -5.97225805 6.49759556 0 0 Z " fill="#CEB182" transform="translate(148,97)"/>
<path d="M0 0 C0.33 16.5 0.66 33 1 50 C-1.475 47.525 -1.475 47.525 -4 45 C-5.77645986 43.27769035 -7.55520725 41.5577378 -9.3359375 39.83984375 C-10.8363746 38.37619815 -12.33446388 36.91019514 -13.83154297 35.44311523 C-14.86692319 34.43312 -15.906709 33.42762287 -16.95068359 32.42651367 C-18.46591308 30.97171327 -19.96459583 29.50153246 -21.4609375 28.02734375 C-22.35603027 27.15843506 -23.25112305 26.28952637 -24.17333984 25.39428711 C-26 23 -26 23 -25.89794922 20.82714844 C-22.68148129 14.2822746 -8.01249864 0 0 0 Z " fill="#887A67" transform="translate(196,95)"/>
<path d="M0 0 C7.66666667 7.66666667 15.33333333 15.33333333 23 23 C23.33 21.35 23.66 19.7 24 18 C24.33 18 24.66 18 25 18 C25.02578125 19.15757812 25.0515625 20.31515625 25.078125 21.5078125 C25.13443349 23.04691128 25.1917802 24.58597233 25.25 26.125 C25.26417969 26.88554687 25.27835938 27.64609375 25.29296875 28.4296875 C25.52573467 33.8298569 26.61913915 36.76716222 30 41 C29.505 41.99 29.505 41.99 29 43 C28.154375 42.236875 27.30875 41.47375 26.4375 40.6875 C23.17996332 37.9508582 19.96276872 36.50585211 16 35 C16.33 34.34 16.66 33.68 17 33 C18.33333333 32.66666667 19.66666667 32.33333333 21 32 C21.33 31.34 21.66 30.68 22 30 C21.38253906 30.144375 20.76507813 30.28875 20.12890625 30.4375 C12.97531812 32.00540973 6.15148873 33.00434101 -1 31 C-1.33 29.68 -1.66 28.36 -2 27 C-1.01 26.34 -0.02 25.68 1 25 C-0.11375 24.896875 -1.2275 24.79375 -2.375 24.6875 C-4.169375 24.3471875 -4.169375 24.3471875 -6 24 C-8 21 -8 21 -7.8125 17.8125 C-6.36455925 11.01831649 -4.07392999 5.61921378 0 0 Z " fill="#877965" transform="translate(129,119)"/>
<path d="M0 0 C-3.50776784 1.60355101 -6.14354879 2.22036864 -10 2 C-9.01 3.32 -8.02 4.64 -7 6 C-9.33333333 6 -11.66666667 6 -14 6 C-14.33 7.32 -14.66 8.64 -15 10 C-14.05125 10.28875 -13.1025 10.5775 -12.125 10.875 C-9 12 -9 12 -7 14 C-6.75 16.5 -6.75 16.5 -7 19 C-9 21 -9 21 -12.4375 21.1875 C-16 21 -16 21 -19 20 C-19.33 19.34 -19.66 18.68 -20 18 C-22.02054804 19.64169528 -24.02043058 21.30911778 -26 23 C-26 23.33 -26 23.66 -26 24 C-28.97 24 -31.94 24 -35 24 C-38 18.25 -38 18.25 -38 16 C-40.31 16 -42.62 16 -45 16 C-45.33 17.65 -45.66 19.3 -46 21 C-46.66 21 -47.32 21 -48 21 C-47.56928825 19.31075464 -47.13003863 17.62368565 -46.6875 15.9375 C-46.44386719 14.99777344 -46.20023438 14.05804688 -45.94921875 13.08984375 C-44.8711887 9.58070066 -43.49384712 6.35174101 -42 3 C-41.38181396 2.98541748 -40.76362793 2.97083496 -40.12670898 2.95581055 C-28.79720502 2.65824678 -17.89502751 2.24701699 -6.86328125 -0.4765625 C-4.0966659 -0.98232847 -2.60678303 -0.95138067 0 0 Z " fill="#857662" transform="translate(210,281)"/>
<path d="M0 0 C3.11762761 1.38256278 5.2166926 2.97938157 7.6015625 5.40625 C8.25640625 6.06753906 8.91125 6.72882813 9.5859375 7.41015625 C10.59527344 8.44462891 10.59527344 8.44462891 11.625 9.5 C12.305625 10.18964844 12.98625 10.87929687 13.6875 11.58984375 C14.94711545 12.86688471 16.20466586 14.14596817 17.45947266 15.42773438 C18.63280175 16.62523665 19.8145227 17.8145227 21 19 C20.56429687 19.40089844 20.12859375 19.80179688 19.6796875 20.21484375 C14.97755974 24.70323843 11.41638401 29.48122584 8 35 C2.7518956 32.70597565 -0.76397163 28.56505419 -4.75 24.5625 C-5.54277344 23.78583984 -6.33554688 23.00917969 -7.15234375 22.20898438 C-7.90128906 21.46068359 -8.65023437 20.71238281 -9.421875 19.94140625 C-10.10862305 19.25763916 -10.79537109 18.57387207 -11.50292969 17.86938477 C-13 16 -13 16 -13 13 C-11.38371356 11.2321867 -9.74521458 9.63328871 -8 8 C-6.55850882 6.5665023 -5.12117519 5.12881466 -3.6875 3.6875 C-2.45833333 2.45833333 -1.22916667 1.22916667 0 0 Z " fill="#8E7D66" transform="translate(73,65)"/>
<path d="M0 0 C1.86916617 3.51123739 3.21829913 7.1578519 4.625 10.875 C7.25991083 17.66232273 10.54598741 23.82436256 14.265625 30.07421875 C15.61656 32.3531609 16.86087892 34.61133284 18 37 C14.7607886 38.6196057 11.24295619 38.22623755 7.6875 38.25 C6.92759766 38.270625 6.16769531 38.29125 5.38476562 38.3125 C0.75059597 38.34470969 -2.23315576 37.99215363 -6 35 C-9.569448 29.95353903 -9.88022527 24.95782101 -9 19 C-6.96917837 12.14194761 -4.38521636 5.68453973 0 0 Z " fill="#D9B47C" transform="translate(59,216)"/>
<path d="M0 0 C0.33 0.66 0.66 1.32 1 2 C1.55558594 2.2475 2.11117187 2.495 2.68359375 2.75 C6.06627877 4.57539495 8.41540256 7.24571947 11.0625 10 C15.24121866 14.32816662 15.24121866 14.32816662 20 18 C19.27554688 18.49628906 18.55109375 18.99257812 17.8046875 19.50390625 C12.03549343 23.55772662 7.30779247 27.41151248 3 33 C-2.66666667 27.33333333 -8.33333333 21.66666667 -14 16 C-13.34 16 -12.68 16 -12 16 C-11.76410156 15.44570312 -11.52820313 14.89140625 -11.28515625 14.3203125 C-9.6873545 11.43552758 -7.68148991 9.28827968 -5.4375 6.875 C-2.36280814 3.68492491 -2.36280814 3.68492491 0 0 Z " fill="#897B68" transform="translate(162,80)"/>
<path d="M0 0 C1.72476563 0.00616333 1.72476563 0.00616333 3.484375 0.01245117 C4.7321875 0.01438477 5.98 0.01631836 7.265625 0.01831055 C9.23015625 0.03667969 9.23015625 0.03667969 11.234375 0.05541992 C12.5440625 0.05606445 13.85375 0.05670898 15.203125 0.05737305 C24.95393965 0.10270225 24.95393965 0.10270225 27.234375 1.24291992 C28.06124557 5.4832818 28.3406231 9.03815283 27.234375 13.24291992 C23.01314203 17.30039817 17.75884404 21.09469459 11.7265625 21.34838867 C7.87693108 19.64079355 5.39794275 16.78448937 2.546875 13.74291992 C1.39920257 12.54302266 0.24955329 11.34501216 -0.90234375 10.14916992 C-1.40467529 9.61614258 -1.90700684 9.08311523 -2.42456055 8.53393555 C-3.75661473 7.12320226 -3.75661473 7.12320226 -5.765625 6.24291992 C-4.98042468 2.31691834 -4.33760988 0.38099592 0 0 Z " fill="#C8AE80" transform="translate(168.765625,75.757080078125)"/>
<path d="M0 0 C0.66 0.33 1.32 0.66 2 1 C-9.22 12.22 -20.44 23.44 -32 35 C-25.07 35.495 -25.07 35.495 -18 36 C-14.765625 40.5703125 -14.765625 40.5703125 -14 44 C-12.68 41.69 -11.36 39.38 -10 37 C-9.34 37.33 -8.68 37.66 -8 38 C-8.27714844 38.4846875 -8.55429688 38.969375 -8.83984375 39.46875 C-11.51209285 44.4138373 -12.59967438 48.39544133 -13 54 C-14.60463449 53.68991116 -16.20869231 53.37683713 -17.8125 53.0625 C-18.70582031 52.88847656 -19.59914062 52.71445312 -20.51953125 52.53515625 C-23 52 -23 52 -26 51 C-26 51.99 -26 52.98 -26 54 C-26.99 54 -27.98 54 -29 54 C-29 52.35 -29 50.7 -29 49 C-29.94875 48.690625 -30.8975 48.38125 -31.875 48.0625 C-35 47 -35 47 -37 46 C-37 48.64 -37 51.28 -37 54 C-37.66 54 -38.32 54 -39 54 C-39.13487595 51.22754986 -39.23400807 48.46162912 -39.3125 45.6875 C-39.35439453 44.90181641 -39.39628906 44.11613281 -39.43945312 43.30664062 C-39.45556641 42.54931641 -39.47167969 41.79199219 -39.48828125 41.01171875 C-39.51446533 40.31522217 -39.54064941 39.61872559 -39.56762695 38.90112305 C-38.69819996 35.98919704 -36.60921981 35.52462317 -34 34 C-31.24068458 31.54171122 -28.66798823 28.90059602 -26.07421875 26.26953125 C-25.32662796 25.51911057 -24.57903717 24.76868988 -23.80879211 23.99552917 C-21.43027929 21.60585247 -19.05882877 19.20930367 -16.6875 16.8125 C-15.07272703 15.18769236 -13.45749774 13.56333807 -11.84179688 11.93945312 C-7.88922799 7.96487416 -3.94242935 3.98463532 0 0 Z " fill="#6B5940" transform="translate(164,248)"/>
<path d="M0 0 C-0.45021768 5.22094533 -2.36806458 8.583009 -5.4375 12.6875 C-5.87690918 13.28965332 -6.31631836 13.89180664 -6.76904297 14.51220703 C-11.1233122 20.37199924 -15.94926808 25.73434331 -21 31 C-25.66666667 27 -30.33333333 23 -35 19 C-31.77317471 15.43435805 -28.11438562 13.03554839 -24 10.625 C-23.34153076 10.23578369 -22.68306152 9.84656738 -22.00463867 9.44555664 C-5.85427569 0 -5.85427569 0 0 0 Z " fill="#887B68" transform="translate(165,60)"/>
<path d="M0 0 C17.12249642 14.14467096 17.12249642 14.14467096 18.25 20.375 C18.66238626 24.19052317 18.66238626 24.19052317 21.75 26.4375 C24.9349241 27.96871351 27.49797173 28.6664735 31 29 C31.495 30.485 31.495 30.485 32 32 C26.67089178 31.35489743 21.65543148 30.23483805 16.5 28.75 C15.41912109 28.46189453 15.41912109 28.46189453 14.31640625 28.16796875 C7.85934587 26.31141794 3.1828499 23.35076144 -1.4375 18.375 C-3.62037546 13.65998901 -3.85845838 9.11981485 -3 4 C-1.47265625 1.6640625 -1.47265625 1.6640625 0 0 Z " fill="#E7BF86" transform="translate(96,117)"/>
<path d="M0 0 C4.62 0 9.24 0 14 0 C13.01 0.99 12.02 1.98 11 3 C10.68758887 5.53084814 10.68758887 5.53084814 12 8 C14.24274035 9.6593067 16.47545031 10.7606756 19 12 C18.67 13.32 18.34 14.64 18 16 C12.25 16.125 12.25 16.125 10 15 C10 15.66 10 16.32 10 17 C12.64 17.33 15.28 17.66 18 18 C17.34 18.99 16.68 19.98 16 21 C13.8359375 21.29296875 13.8359375 21.29296875 11.375 21.1875 C10.14910156 21.14689453 10.14910156 21.14689453 8.8984375 21.10546875 C8.27195313 21.07066406 7.64546875 21.03585937 7 21 C4 15.25 4 15.25 4 13 C1.69 13 -0.62 13 -3 13 C-3.33 14.65 -3.66 16.3 -4 18 C-4.66 18 -5.32 18 -6 18 C-4.41039668 11.76559832 -2.72399099 5.83712355 0 0 Z " fill="#857764" transform="translate(168,284)"/>
<path d="M0 0 C3.35040234 1.67520117 4.46146221 5.33829336 6.125 8.5625 C6.68380859 9.62887695 6.68380859 9.62887695 7.25390625 10.71679688 C8.17440538 12.47518624 9.08786961 14.237255 10 16 C10.33 11.71 10.66 7.42 11 3 C11.33 3 11.66 3 12 3 C12 8.61 12 14.22 12 20 C8.03126566 18.67708855 7.70094963 17.08850262 5.8125 13.4375 C5.28269531 12.42558594 4.75289063 11.41367187 4.20703125 10.37109375 C3.80871094 9.58863281 3.41039062 8.80617188 3 8 C2.67 11.96 2.34 15.92 2 20 C-1.11257569 20 -3.10765685 19.82638376 -6 19 C-6 17.68 -6 16.36 -6 15 C-8.31 15.33 -10.62 15.66 -13 16 C-13.33 17.32 -13.66 18.64 -14 20 C-14.99 19.67 -15.98 19.34 -17 19 C-16.26985978 16.51333391 -15.5174505 14.03764005 -14.75 11.5625 C-14.54503906 10.85544922 -14.34007812 10.14839844 -14.12890625 9.41992188 C-13.484375 7.37890625 -13.484375 7.37890625 -12 4 C-9.828125 3.02734375 -9.828125 3.02734375 -8 3 C-8 3.66 -8 4.32 -8 5 C-7.44570312 4.62746094 -6.89140625 4.25492187 -6.3203125 3.87109375 C-5.59585938 3.39800781 -4.87140625 2.92492187 -4.125 2.4375 C-3.40570313 1.96183594 -2.68640625 1.48617188 -1.9453125 0.99609375 C-0.98238281 0.50302734 -0.98238281 0.50302734 0 0 Z " fill="#C3AD81" transform="translate(254,282)"/>
<path d="M0 0 C0.99 0.495 0.99 0.495 2 1 C-0.49391194 4.35718914 -3.09165483 6.93669739 -6.3515625 9.54296875 C-8.95619842 11.84517064 -11.14446192 14.48334121 -13.38671875 17.1328125 C-14.86841632 18.84770702 -16.30410736 20.49565446 -18 22 C-18.66 22 -19.32 22 -20 22 C-20.495 23.485 -20.495 23.485 -21 25 C-22.453125 26.4296875 -22.453125 26.4296875 -24.25 27.875 C-27.37470166 30.40517877 -30.17670734 33.13590831 -33 36 C-34.12415775 37.12584162 -35.24921279 38.25078776 -36.375 39.375 C-37.26445312 40.26445312 -37.26445312 40.26445312 -38.171875 41.171875 C-39.98958333 42.98958333 -41.80729167 44.80729167 -43.625 46.625 C-44.19927734 47.19992188 -44.77355469 47.77484375 -45.36523438 48.3671875 C-46.83259247 49.83279248 -48.30650653 51.29182668 -49.78125 52.75 C-52.11983427 55.05883888 -52.11983427 55.05883888 -54.5 58 C-56.87353344 60.84824012 -59.27004182 63.49138978 -62 66 C-62.66 66 -63.32 66 -64 66 C-64.495 67.485 -64.495 67.485 -65 69 C-67.93951219 72.22398111 -71.18385928 75.06562485 -74.4375 77.96875 C-79.87742405 82.86809427 -85.26600811 87.80935292 -90.52612305 92.90136719 C-91.5570256 93.89016868 -92.59760671 94.86897002 -93.6472168 95.83789062 C-101.1993889 102.71523584 -101.1993889 102.71523584 -104.18359375 112.2265625 C-104.17337061 113.81885196 -104.13168944 115.4131326 -104 117 C-104.33 117 -104.66 117 -105 117 C-105.81124933 111.64150777 -106.19332897 106.98075675 -103.32252502 102.21562958 C-100.79991073 99.32571444 -98.13238665 96.64534846 -95.36132812 93.99902344 C-94.32427961 92.96536474 -93.28987609 91.92904665 -92.25791931 90.89030457 C-89.46398246 88.09293998 -86.63474851 85.33399391 -83.7974453 82.58071804 C-80.83308021 79.69163255 -77.90291186 76.76826988 -74.96887207 73.84844971 C-69.41460242 68.3314012 -63.83047509 62.84564106 -58.23482752 57.37059903 C-51.86300894 51.13315032 -45.52544123 44.86138054 -39.19044971 38.58656645 C-26.16458021 25.68595433 -13.0965449 12.8288376 0 0 Z " fill="#D9CBB3" transform="translate(188,181)"/>
<path d="M0 0 C0 4.23938737 -2.37815786 6.40875444 -4.9375 9.5625 C-5.4418457 10.19164307 -5.94619141 10.82078613 -6.46582031 11.46899414 C-17.66766245 25.3368464 -30.45447429 40.83662986 -46 50 C-46.66 50 -47.32 50 -48 50 C-46.47102424 46.38307227 -44.32184367 44.0796478 -41.55029297 41.32324219 C-40.16908768 39.94226349 -40.16908768 39.94226349 -38.75997925 38.53338623 C-37.75415535 37.5377747 -36.7482222 36.54227352 -35.7421875 35.546875 C-34.71327851 34.52169807 -33.68481163 33.49607725 -32.6567688 32.47003174 C-29.95518419 29.77606836 -27.24764659 27.08816632 -24.53881836 24.40148926 C-21.77355511 21.65671696 -19.01397367 18.90624528 -16.25390625 16.15625 C-10.84147726 10.76524427 -5.42274562 5.38063036 0 0 Z " fill="#8C785C" transform="translate(145,194)"/>
<path d="M0 0 C5.62219846 4.66522851 11.16010796 9.51259405 16 15 C16 15.66 16 16.32 16 17 C11.05 17 6.1 17 1 17 C0.67 11.39 0.34 5.78 0 0 Z " fill="#BEA981" transform="translate(213,161)"/>
<path d="M0 0 C1.60875 -0.061875 3.2175 -0.12375 4.875 -0.1875 C5.77992188 -0.22230469 6.68484375 -0.25710938 7.6171875 -0.29296875 C8.79667969 -0.14794922 8.79667969 -0.14794922 10 0 C12 3 12 3 11.625 5.6875 C11.41875 6.450625 11.2125 7.21375 11 8 C10.01 8.33 9.02 8.66 8 9 C9.32 11.64 10.64 14.28 12 17 C11.01 17 10.02 17 9 17 C8.01 15.02 7.02 13.04 6 11 C5.01 11 4.02 11 3 11 C2.67 12.98 2.34 14.96 2 17 C1.34 17 0.68 17 0 17 C0 11.39 0 5.78 0 0 Z " fill="#403120" transform="translate(224,285)"/>
<path d="M0 0 C2.11841488 6.35524464 -3.44335156 14.08113171 -6.1875 19.8125 C-11.8391547 31.11119455 -19.2571422 40.88605316 -28 50 C-28.76957031 50.83273437 -29.53914063 51.66546875 -30.33203125 52.5234375 C-36.59121055 59.09608135 -43.42829256 64.08669768 -51 69 C-51.66 68.67 -52.32 68.34 -53 68 C-51.99582031 67.28457031 -50.99164063 66.56914062 -49.95703125 65.83203125 C-27.08278749 49.28315012 -11.57851587 29.28040809 -1.69140625 2.72265625 C-1 1 -1 1 0 0 Z " fill="#D9CBB1" transform="translate(299,218)"/>
<path d="M0 0 C3.57430532 5.03652114 4.7475461 8.72839838 4.375 14.9375 C0.745 13.9475 -2.885 12.9575 -6.625 11.9375 C-6.625 7.9775 -6.625 4.0175 -6.625 -0.0625 C-1.625 -1.0625 -1.625 -1.0625 0 0 Z " fill="#8A7D6A" transform="translate(144.625,287.0625)"/>
<path d="M0 0 C4.75 0.75 4.75 0.75 7 3 C7.30078125 5.05859375 7.30078125 5.05859375 7.3125 7.4375 C7.32925781 8.21996094 7.34601563 9.00242187 7.36328125 9.80859375 C6.91700017 12.50067642 6.1784515 13.39728211 4 15 C1.4375 14.875 1.4375 14.875 -1 14 C-3.47342266 10.28986601 -3.38503486 8.38939738 -3 4 C-1.5 1.5625 -1.5 1.5625 0 0 Z " fill="#DFBB87" transform="translate(67,286)"/>
<path d="M0 0 C-2.64725287 1.76483525 -5.161758 2.94915208 -8.08789062 4.15478516 C-23.8751728 10.7050693 -37.31943557 19.44681917 -50.28662109 30.53759766 C-51.95545211 31.9619775 -53.64081191 33.3640464 -55.33203125 34.76171875 C-57.950725 36.89256122 -57.950725 36.89256122 -60 39 C-58.87304604 30.98610519 -47.61934678 24.76148532 -41.5 20.0625 C-14.08064007 -0.54061794 -14.08064007 -0.54061794 0 0 Z " fill="#E6DED2" transform="translate(137,157)"/>
<path d="M0 0 C4.62 0 9.24 0 14 0 C11.99006295 4.01987409 10.06153611 6.14516995 6.875 9.25 C5.96492187 10.14203125 5.05484375 11.0340625 4.1171875 11.953125 C3.41851562 12.62859375 2.71984375 13.3040625 2 14 C-0.74809946 9.36934423 -0.13884536 5.27612362 0 0 Z " fill="#CBB68F" transform="translate(216,181)"/>
<path d="M0 0 C6.07936783 0.27019413 10.17774296 0.96276154 15 5 C19.84943125 10.37369409 20.11381876 14.05705538 20 21 C19.690625 20.1646875 19.690625 20.1646875 19.375 19.3125 C17.85423256 16.75484567 16.02733463 15.31315021 13.7109375 13.48828125 C11.74693254 11.77986598 10.12255565 9.92056768 8.4375 7.9375 C5.85412743 4.90060202 3.24074808 2.35690769 0 0 Z " fill="#8A7C67" transform="translate(134,156)"/>
<path d="M0 0 C1.828125 0.06640625 1.828125 0.06640625 4 1 C5.13273936 3.35788641 5.97142521 5.46711646 6.75 7.9375 C6.97042969 8.58396484 7.19085938 9.23042969 7.41796875 9.89648438 C9 14.6278387 9 14.6278387 9 17 C8.01 16.67 7.02 16.34 6 16 C5.3125 13.9375 5.3125 13.9375 5 12 C2.69 12 0.38 12 -2 12 C-2.33 13.65 -2.66 15.3 -3 17 C-3.66 17 -4.32 17 -5 17 C-1.92482916 5.47835991 -1.92482916 5.47835991 0 0 Z " fill="#413322" transform="translate(167,285)"/>
<path d="M0 0 C2.96229791 1.03036449 4.02254258 1.54441691 5.875 4 C6.2734375 6.59375 6.2734375 6.59375 6.25 9.5 C6.25773437 10.4590625 6.26546875 11.418125 6.2734375 12.40625 C5.875 15 5.875 15 4.4765625 16.84375 C2.875 18 2.875 18 0.875 18 C1.205 18.66 1.535 19.32 1.875 20 C4.40233235 20.65555119 4.40233235 20.65555119 6.875 21 C6.875 21.33 6.875 21.66 6.875 22 C3.08107291 22.35292345 1.3676937 22.34373979 -1.8125 20.125 C-2.575625 19.42375 -3.33875 18.7225 -4.125 18 C-5.115 17.34 -6.105 16.68 -7.125 16 C-8.36706225 12.27381326 -8.78538635 8.86476105 -8.125 5 C-5.60737756 1.37166178 -4.48968459 0 0 0 Z M-4.875 3.5625 C-6.59252489 6.91167354 -6.52321287 9.28334656 -6.125 13 C-4.76614884 15.40083438 -4.76614884 15.40083438 -3.125 17 C0.80575644 16.42547254 0.80575644 16.42547254 3.875 14 C4.23139561 11.89582032 4.23139561 11.89582032 4.1875 9.5625 C4.20425781 8.78003906 4.22101563 7.99757813 4.23828125 7.19140625 C4.0298522 4.94152949 4.0298522 4.94152949 2.60546875 3.21484375 C-0.17929385 1.2598524 -2.3479362 1.30619304 -4.875 3.5625 Z " fill="#453624" transform="translate(70.125,284)"/>
<path d="M0 0 C0.99 0 1.98 0 3 0 C3.83698386 2.45714547 4.66972424 4.91558857 5.5 7.375 C5.73847656 8.07367188 5.97695312 8.77234375 6.22265625 9.4921875 C8 14.7734375 8 14.7734375 8 17 C7.34 17 6.68 17 6 17 C5.67 15.35 5.34 13.7 5 12 C2.69 12.33 0.38 12.66 -2 13 C-2.33 14.32 -2.66 15.64 -3 17 C-3.99 16.67 -4.98 16.34 -6 16 C-5.19110952 13.51960151 -4.37808099 11.04069788 -3.5625 8.5625 C-3.33240234 7.85544922 -3.10230469 7.14839844 -2.86523438 6.41992188 C-1.11328125 1.11328125 -1.11328125 1.11328125 0 0 Z " fill="#5A4B39" transform="translate(101,285)"/>
<path d="M0 0 C0.99 0 1.98 0 3 0 C3.83698386 2.45714547 4.66972424 4.91558857 5.5 7.375 C5.73847656 8.07367188 5.97695312 8.77234375 6.22265625 9.4921875 C8 14.7734375 8 14.7734375 8 17 C7.01 16.67 6.02 16.34 5 16 C5 14.68 5 13.36 5 12 C2.69 12.33 0.38 12.66 -2 13 C-2.33 14.32 -2.66 15.64 -3 17 C-3.99 16.67 -4.98 16.34 -6 16 C-5.19110952 13.51960151 -4.37808099 11.04069788 -3.5625 8.5625 C-3.33240234 7.85544922 -3.10230469 7.14839844 -2.86523438 6.41992188 C-1.11328125 1.11328125 -1.11328125 1.11328125 0 0 Z " fill="#4B3C2A" transform="translate(243,285)"/>
<path d="M0 0 C2.95786144 3.02828671 3.38629508 5.51758361 3.41015625 9.69726562 C3.39855469 10.39529297 3.38695312 11.09332031 3.375 11.8125 C3.38660156 12.49892578 3.39820313 13.18535156 3.41015625 13.89257812 C3.38150351 18.94023563 2.23371352 22.4793893 0 27 C-2.49394444 24.50605556 -2.2576853 22.99730773 -2.27734375 19.58984375 C-2.26832031 18.87957031 -2.25929687 18.16929688 -2.25 17.4375 C-2.24613281 16.71820313 -2.24226562 15.99890625 -2.23828125 15.2578125 C-2.15196158 9.93476636 -1.46724809 5.13536831 0 0 Z " fill="#C6BCAC" transform="translate(212,99)"/>
<path d="M0 0 C0 5.28 0 10.56 0 16 C-0.33 16 -0.66 16 -1 16 C-1 14.35 -1 12.7 -1 11 C-1.94875 10.690625 -2.8975 10.38125 -3.875 10.0625 C-7 9 -7 9 -9 8 C-9 5.36 -9 2.72 -9 0 C-7 -1 -7 -1 0 0 Z " fill="#867864" transform="translate(136,286)"/>
<path d="M0 0 C0 5.28 0 10.56 0 16 C-8.14088983 9.08792373 -8.14088983 9.08792373 -10 7 C-10 6.34 -10 5.68 -10 5 C-8.3203125 3.7109375 -8.3203125 3.7109375 -6.125 2.375 C-5.40570313 1.92898437 -4.68640625 1.48296875 -3.9453125 1.0234375 C-2 0 -2 0 0 0 Z " fill="#CFBA93" transform="translate(195,96)"/>
<path d="M0 0 C0.66 0.33 1.32 0.66 2 1 C-0.59755557 4.32811808 -3.18598402 7.25272569 -6.41015625 9.98046875 C-11.69065335 14.55814849 -16.7872534 19.31318939 -21.80249023 24.17773438 C-22.8954757 25.22877609 -23.99815869 26.26982251 -25.11010742 27.30078125 C-33.0097981 34.41251338 -33.0097981 34.41251338 -36.22265625 44.265625 C-36.22706201 46.89736283 -36.22706201 46.89736283 -36 49 C-36.33 49 -36.66 49 -37 49 C-37.63194788 43.8935846 -38.19203544 39.08226282 -35.5637207 34.49108887 C-33.46195738 32.07873367 -31.25681033 29.90505446 -28.90625 27.734375 C-28.08499634 26.93010071 -27.26374268 26.12582642 -26.41760254 25.29718018 C-23.80534281 22.75173762 -21.15445158 20.25133792 -18.5 17.75 C-16.71472078 16.02495331 -14.93213558 14.29711391 -13.15234375 12.56640625 C-8.79889129 8.34477947 -4.41299095 4.15930246 0 0 Z " fill="#E5D4BB" transform="translate(120,249)"/>
<path d="M0 0 C0.99 0 1.98 0 3 0 C3.33 4.62 3.66 9.24 4 14 C5.65 14 7.3 14 9 14 C10.87824891 12.12175109 10.39102397 8.96064724 10.5625 6.4375 C10.64628906 5.23996094 10.73007813 4.04242188 10.81640625 2.80859375 C10.87699219 1.88175781 10.93757813 0.95492188 11 0 C11.66 0 12.32 0 13 0 C13.08097324 2.27024968 13.13917704 4.54132075 13.1875 6.8125 C13.22230469 8.07707031 13.25710937 9.34164063 13.29296875 10.64453125 C13 14 13 14 11.7109375 15.9296875 C8.86239767 17.71165077 6.25236757 17.29566978 3 17 C0.15385976 14.15385976 0.54420924 11.19630858 0.375 7.375 C0.33632812 6.66859375 0.29765625 5.9621875 0.2578125 5.234375 C0.16352276 3.49001476 0.08067109 1.74504309 0 0 Z " fill="#4B3C2B" transform="translate(80,285)"/>
<path d="M0 0 C0.99 0 1.98 0 3 0 C5.31 4.29 7.62 8.58 10 13 C10.33 8.71 10.66 4.42 11 0 C11.33 0 11.66 0 12 0 C12 5.61 12 11.22 12 17 C8.03126566 15.67708855 7.70094963 14.08850262 5.8125 10.4375 C5.28269531 9.42558594 4.75289063 8.41367187 4.20703125 7.37109375 C3.80871094 6.58863281 3.41039062 5.80617188 3 5 C2.67 8.96 2.34 12.92 2 17 C1.34 17 0.68 17 0 17 C0 11.39 0 5.78 0 0 Z " fill="#3B2C1B" transform="translate(254,285)"/>
<path d="M0 0 C2.4375 0.75 2.4375 0.75 4.4375 2.75 C2.10416667 2.75 -0.22916667 2.75 -2.5625 2.75 C-2.8925 4.07 -3.2225 5.39 -3.5625 6.75 C-2.61375 7.03875 -1.665 7.3275 -0.6875 7.625 C2.4375 8.75 2.4375 8.75 4.4375 10.75 C4.6875 13.25 4.6875 13.25 4.4375 15.75 C2.4375 17.75 2.4375 17.75 -1.0625 17.9375 C-4.5625 17.75 -4.5625 17.75 -6.5625 16.75 C-6.5625 16.09 -6.5625 15.43 -6.5625 14.75 C-3.9225 14.75 -1.2825 14.75 1.4375 14.75 C1.4375 13.76 1.4375 12.77 1.4375 11.75 C-0.32982099 10.2805191 -0.32982099 10.2805191 -2.5625 9.0625 C-3.305 8.62550781 -4.0475 8.18851562 -4.8125 7.73828125 C-5.39 7.41214844 -5.9675 7.08601563 -6.5625 6.75 C-6.25 4.375 -6.25 4.375 -5.5625 1.75 C-2.5625 -0.25 -2.5625 -0.25 0 0 Z " fill="#423423" transform="translate(184.5625,284.25)"/>
<path d="M0 0 C2.4375 0.75 2.4375 0.75 4.4375 2.75 C2.10416667 2.75 -0.22916667 2.75 -2.5625 2.75 C-2.8925 4.07 -3.2225 5.39 -3.5625 6.75 C-2.61375 7.03875 -1.665 7.3275 -0.6875 7.625 C2.4375 8.75 2.4375 8.75 4.4375 10.75 C4.6875 13.25 4.6875 13.25 4.4375 15.75 C2.4375 17.75 2.4375 17.75 -1.0625 17.9375 C-4.5625 17.75 -4.5625 17.75 -6.5625 16.75 C-6.5625 16.09 -6.5625 15.43 -6.5625 14.75 C-3.9225 14.75 -1.2825 14.75 1.4375 14.75 C1.4375 13.76 1.4375 12.77 1.4375 11.75 C-0.32982099 10.2805191 -0.32982099 10.2805191 -2.5625 9.0625 C-3.305 8.62550781 -4.0475 8.18851562 -4.8125 7.73828125 C-5.39 7.41214844 -5.9675 7.08601563 -6.5625 6.75 C-6.25 4.375 -6.25 4.375 -5.5625 1.75 C-2.5625 -0.25 -2.5625 -0.25 0 0 Z " fill="#433524" transform="translate(198.5625,284.25)"/>
<path d="M0 0 C0.66 0 1.32 0 2 0 C2.33 4.95 2.66 9.9 3 15 C4.65 15 6.3 15 8 15 C9.94090826 13.05909174 9.39919435 9.52706098 9.5625 6.9375 C9.64628906 5.64714844 9.73007813 4.35679687 9.81640625 3.02734375 C9.87699219 2.02832031 9.93757812 1.02929688 10 0 C10.66 0 11.32 0 12 0 C12.05383848 2.45862401 12.09359038 4.9160755 12.125 7.375 C12.14175781 8.07367188 12.15851563 8.77234375 12.17578125 9.4921875 C12.19344267 11.32897486 12.10303261 13.16601963 12 15 C10 17 10 17 6.5625 17.3125 C3 17 3 17 1.2890625 15.9296875 C-0.69841819 12.95448914 -0.28442676 10.33417219 -0.1875 6.8125 C-0.16042969 5.54019531 -0.13335937 4.26789063 -0.10546875 2.95703125 C-0.07066406 1.98121094 -0.03585938 1.00539063 0 0 Z " fill="#3C2E1D" transform="translate(207,285)"/>
<path d="M0 0 C4.92066611 4.11729205 9.51803236 8.41160041 14 13 C14.66 13.66 15.32 14.32 16 15 C11.00318865 14.9782274 7.9274787 14.80907716 4.0625 11.4375 C1.56514656 7.89814737 0.79906405 4.21324683 0 0 Z " fill="#857864" transform="translate(158,149)"/>
<path d="M0 0 C0 0.99 0 1.98 0 3 C-0.94875 2.79375 -1.8975 2.5875 -2.875 2.375 C-3.90625 2.25125 -4.9375 2.1275 -6 2 C-8.20162356 3.78369367 -8.20162356 3.78369367 -8.23046875 6.12890625 C-8.21628906 6.93199219 -8.20210938 7.73507812 -8.1875 8.5625 C-8.18105469 9.36816406 -8.17460937 10.17382812 -8.16796875 11.00390625 C-8.21630912 12.99879885 -8.21630912 12.99879885 -7 14 C-4.32941149 14.14115161 -1.67567762 14.04247107 1 14 C1 14.66 1 15.32 1 16 C-2.04983996 17.52491998 -4.6423369 17.23562548 -8 17 C-10.0766037 15.44985921 -10.87664608 14.3944371 -11.65234375 11.9140625 C-12.42584642 5.70484925 -12.42584642 5.70484925 -10.1875 2 C-6.48101914 -1.3887825 -4.81706948 -0.94247012 0 0 Z " fill="#51412D" transform="translate(282,285)"/>
<path d="M0 0 C3.3 0 6.6 0 10 0 C10 0.33 10 0.66 10 1 C7.36 1 4.72 1 2 1 C2 2.98 2 4.96 2 7 C3.98 7 5.96 7 8 7 C8 7.66 8 8.32 8 9 C6.02 9 4.04 9 2 9 C2 10.98 2 12.96 2 15 C4.64 15 7.28 15 10 15 C10 15.66 10 16.32 10 17 C6.7 17 3.4 17 0 17 C0 11.39 0 5.78 0 0 Z " fill="#423322" transform="translate(287,285)"/>
<path d="M0 0 C0.33 1.32 0.66 2.64 1 4 C7.73881911 4.67277818 7.73881911 4.67277818 13.625 2 C14.07875 1.34 14.5325 0.68 15 0 C14.67 1.65 14.34 3.3 14 5 C13.34 5 12.68 5 12 5 C12 5.66 12 6.32 12 7 C-0.89228103 8.63711505 -0.89228103 8.63711505 -6 8 C-6.66 7.34 -7.32 6.68 -8 6 C-7.236875 5.7525 -6.47375 5.505 -5.6875 5.25 C-2.7635955 3.89004442 -1.69995644 2.68414174 0 0 Z " fill="#8A7F6F" transform="translate(190,297)"/>
<path d="M0 0 C0.63671875 1.796875 0.63671875 1.796875 1 4 C-0.16391851 5.72925036 -1.34145588 7.45188154 -2.60546875 9.109375 C-7.00348735 15.07195484 -9.1101144 21.97624965 -11.25 28.984375 C-11.77992414 30.67393832 -12.38445858 32.33971311 -13 34 C-13.99 34.495 -13.99 34.495 -15 35 C-12.65609048 22.10849764 -6.48422674 11.21321537 0 0 Z " fill="#8F744F" transform="translate(74,111)"/>
<path d="M0 0 C1.23593891 3.70781672 0.5678132 4.67510253 -0.9375 8.1875 C-1.31777344 9.08855469 -1.69804687 9.98960937 -2.08984375 10.91796875 C-2.39019531 11.60503906 -2.69054687 12.29210937 -3 13 C-6.08236365 10.21592961 -6.95206337 9.19174654 -8 5 C-4.04 2.525 -4.04 2.525 0 0 Z " fill="#C8B692" transform="translate(240,289)"/>
<path d="M0 0 C3 1 3 1 4.6875 4.0625 C5.120625 5.031875 5.55375 6.00125 6 7 C7.32 4.69 8.64 2.38 10 0 C10.66 0.33 11.32 0.66 12 1 C11.72285156 1.4846875 11.44570312 1.969375 11.16015625 2.46875 C8.48790715 7.4138373 7.40032562 11.39544133 7 17 C6.34 17 5.68 17 5 17 C4.89042969 16.41992188 4.78085938 15.83984375 4.66796875 15.2421875 C3.68125712 10.38082776 2.36364178 6.40496877 0 2 C0 1.34 0 0.68 0 0 Z " fill="#3E2F1E" transform="translate(144,285)"/>
<path d="M0 0 C0.99 0.33 1.98 0.66 3 1 C-1.3690343 6.24284116 -5.83277764 11.51941304 -11 16 C-11.66 16 -12.32 16 -13 16 C-13 13 -13 13 -11 10.8125 C-10.00098815 9.87394708 -9.0008151 8.93662981 -8 8 C-6.55850882 6.5665023 -5.12117519 5.12881466 -3.6875 3.6875 C-2.45833333 2.45833333 -1.22916667 1.22916667 0 0 Z " fill="#907856" transform="translate(73,65)"/>
<path d="M0 0 C1 3 1 3 0.171875 5.27734375 C-3.5848051 12.30563811 -8.11482806 17.78456996 -13.609375 23.46875 C-16.09072506 25.95405403 -16.09072506 25.95405403 -18 29 C-18.3125 26.75 -18.3125 26.75 -18 24 C-16.34241871 22.6553886 -14.67402279 21.32408582 -13 20 C-7.7650485 13.82046197 -3.27761553 7.41026119 0 0 Z " fill="#E4DED2" transform="translate(320,125)"/>
<path d="M0 0 C4.29 0 8.58 0 13 0 C13 0.66 13 1.32 13 2 C11.35 2 9.7 2 8 2 C8 6.95 8 11.9 8 17 C7.34 17 6.68 17 6 17 C6 11.72 6 6.44 6 1 C4.02 1 2.04 1 0 1 C0 0.67 0 0.34 0 0 Z " fill="#443625" transform="translate(130,285)"/>
<path d="M0 0 C0.66 0 1.32 0 2 0 C2 4.95 2 9.9 2 15 C4.64 15 7.28 15 10 15 C10 15.66 10 16.32 10 17 C6.7 17 3.4 17 0 17 C0 11.39 0 5.78 0 0 Z " fill="#41321F" transform="translate(112,285)"/>
<path d="M0 0 C2.53292022 2.53292022 2.28706132 4.20514494 2.32226562 7.66796875 C2.31904297 8.39628906 2.31582031 9.12460938 2.3125 9.875 C2.32861328 10.59558594 2.34472656 11.31617187 2.36132812 12.05859375 C2.36525695 16.32530251 2.05741756 18.91838125 -1 22 C-1.09377123 14.58165418 -1.17402193 7.33763707 0 0 Z " fill="#BFA678" transform="translate(213,101)"/>
<path d="M0 0 C0 3.40916496 -0.31905599 3.72810249 -2.484375 6.14453125 C-3.00773438 6.73943359 -3.53109375 7.33433594 -4.0703125 7.94726562 C-4.62460938 8.56279297 -5.17890625 9.17832031 -5.75 9.8125 C-10.30561028 14.90009138 -10.30561028 14.90009138 -14.265625 20.44921875 C-15.12414062 21.71185547 -15.12414062 21.71185547 -16 23 C-16.66 23 -17.32 23 -18 23 C-16.62267001 18.89715986 -14.76356341 16.33157616 -11.8125 13.1875 C-11.01585937 12.32769531 -10.21921875 11.46789062 -9.3984375 10.58203125 C-8.60695312 9.72996094 -7.81546875 8.87789062 -7 8 C-5.63952368 6.46389855 -4.28462718 4.92282164 -2.9375 3.375 C-2.08478516 2.39660156 -2.08478516 2.39660156 -1.21484375 1.3984375 C-0.81394531 0.93695313 -0.41304687 0.47546875 0 0 Z " fill="#ECE6DE" transform="translate(148,97)"/>
<path d="M0 0 C0.99 0 1.98 0 3 0 C3.83698386 2.45714547 4.66972424 4.91558857 5.5 7.375 C5.85771484 8.42300781 5.85771484 8.42300781 6.22265625 9.4921875 C8 14.7734375 8 14.7734375 8 17 C7.34 17 6.68 17 6 17 C5.773125 16.195625 5.54625 15.39125 5.3125 14.5625 C4.879375 13.716875 4.44625 12.87125 4 12 C1.45224694 11.10613836 1.45224694 11.10613836 -1 11 C0.32 10.34 1.64 9.68 3 9 C2.34 7.02 1.68 5.04 1 3 C0.34 3.99 -0.32 4.98 -1 6 C-1.042721 4.33388095 -1.04063832 2.66617115 -1 1 C-0.67 0.67 -0.34 0.34 0 0 Z " fill="#443524" transform="translate(101,285)"/>
<path d="M0 0 C0.66 0.33 1.32 0.66 2 1 C1.2265625 1.64066406 0.453125 2.28132813 -0.34375 2.94140625 C-1.39590652 3.81501603 -2.44798447 4.68872045 -3.5 5.5625 C-4.31778931 6.23998291 -4.31778931 6.23998291 -5.15209961 6.93115234 C-8.99264112 10.12471686 -12.72663927 13.41152998 -16.37890625 16.8203125 C-18 18 -18 18 -21 18 C-14.47946605 11.09756927 -7.86200476 5.35094621 0 0 Z " fill="#EEE8DF" transform="translate(129,79)"/>
<path d="M0 0 C1.36511719 0.29197266 1.36511719 0.29197266 2.7578125 0.58984375 C3.45648438 0.74582031 4.15515625 0.90179688 4.875 1.0625 C2.52585508 3.41164492 0.91820554 3.79390357 -2.25 4.6875 C-3.16007813 4.94789062 -4.07015625 5.20828125 -5.0078125 5.4765625 C-5.70648438 5.66992188 -6.40515625 5.86328125 -7.125 6.0625 C-7.125 4.0825 -7.125 2.1025 -7.125 0.0625 C-4.4030754 -1.2984623 -2.9418043 -0.64116248 0 0 Z " fill="#CAB798" transform="translate(209.125,79.9375)"/>
<path d="M0 0 C2.31 0 4.62 0 7 0 C7.042721 1.66611905 7.04063832 3.33382885 7 5 C6 6 6 6 2.9375 6.0625 C1.4834375 6.0315625 1.4834375 6.0315625 0 6 C0 4.02 0 2.04 0 0 Z " fill="#847766" transform="translate(226,287)"/>
<path d="M0 0 C4.75 0.75 4.75 0.75 7 3 C7.125 6.125 7.125 6.125 7 9 C5.82460004 8.07347299 4.65989423 7.13336613 3.5 6.1875 C2.52546875 5.40439453 2.52546875 5.40439453 1.53125 4.60546875 C0 3 0 3 0 0 Z " fill="#91816B" transform="translate(67,286)"/>
<path d="M0 0 C0.66 0 1.32 0 2 0 C2.05383848 2.45862401 2.09359038 4.9160755 2.125 7.375 C2.14175781 8.07367188 2.15851563 8.77234375 2.17578125 9.4921875 C2.19344267 11.32897486 2.10303261 13.16601963 2 15 C1.34 15.66 0.68 16.32 0 17 C-0.99 16.67 -1.98 16.34 -3 16 C-2.34 15.34 -1.68 14.68 -1 14 C-0.69940057 11.63490639 -0.50484988 9.25558119 -0.375 6.875 C-0.30023438 5.59367187 -0.22546875 4.31234375 -0.1484375 2.9921875 C-0.09945312 2.00476563 -0.05046875 1.01734375 0 0 Z " fill="#473828" transform="translate(217,285)"/>
<path d="M0 0 C1.00023193 0.00523682 2.00046387 0.01047363 3.03100586 0.01586914 C4.1105957 0.0190918 5.19018555 0.02231445 6.30249023 0.02563477 C8.00695312 0.03820312 8.00695312 0.03820312 9.74584961 0.05102539 C11.45611328 0.05779297 11.45611328 0.05779297 13.20092773 0.06469727 C16.02845312 0.07652792 18.85587601 0.09301129 21.68334961 0.11352539 C21.68334961 0.44352539 21.68334961 0.77352539 21.68334961 1.11352539 C13.76334961 1.44352539 5.84334961 1.77352539 -2.31665039 2.11352539 C-2.64665039 3.10352539 -2.97665039 4.09352539 -3.31665039 5.11352539 C-3.97665039 5.11352539 -4.63665039 5.11352539 -5.31665039 5.11352539 C-2.91139801 0.14267047 -2.91139801 0.14267047 0 0 Z " fill="#DCD0BC" transform="translate(168.316650390625,75.886474609375)"/>
<path d="M0 0 C0.66 0 1.32 0 2 0 C2.66 0.99 3.32 1.98 4 3 C5.97747122 3.36297936 5.97747122 3.36297936 8.125 3.1875 C9.40375 3.125625 10.6825 3.06375 12 3 C12 3.66 12 4.32 12 5 C8.95016004 6.52491998 6.3576631 6.23562548 3 6 C1.0625 4.6875 1.0625 4.6875 0 3 C0 2.01 0 1.02 0 0 Z " fill="#4B3C28" transform="translate(271,296)"/>
<path d="M0 0 C0.33 0.99 0.66 1.98 1 3 C-0.36328125 5.62890625 -0.36328125 5.62890625 -2.3125 8.5625 C-2.94800781 9.53316406 -3.58351562 10.50382812 -4.23828125 11.50390625 C-6 14 -6 14 -8 16 C-7.42070126 11.97387377 -6.14350034 9.19196689 -4 5.75 C-3.46375 4.87859375 -2.9275 4.0071875 -2.375 3.109375 C-1 1 -1 1 0 0 Z " fill="#E3DCD2" transform="translate(169,117)"/>
<path d="M0 0 C0.33 0 0.66 0 1 0 C1.10823773 2.24893954 1.18569645 4.49937575 1.25 6.75 C1.29640625 8.00296875 1.3428125 9.2559375 1.390625 10.546875 C1 14 1 14 -0.84375 16.4375 C-3.44033231 18.31908139 -4.86235687 18.34862701 -8 18 C-7.401875 17.731875 -6.80375 17.46375 -6.1875 17.1875 C-3.85765426 15.9227266 -2.60755103 15.10767802 -1 13 C-0.41907008 9.80754002 -0.41907008 9.80754002 -0.3125 6.3125 C-0.24675781 5.13300781 -0.18101563 3.95351563 -0.11328125 2.73828125 C-0.07589844 1.83464844 -0.03851563 0.93101562 0 0 Z " fill="#F0E8DD" transform="translate(93,286)"/>
<path d="M0 0 C0 3.80345877 -1.13786331 4.77701015 -3.5 7.6875 C-4.1496875 8.49574219 -4.799375 9.30398437 -5.46875 10.13671875 C-5.9740625 10.75160156 -6.479375 11.36648437 -7 12 C-7.66 11.67 -8.32 11.34 -9 11 C-7.59155282 7.78475695 -5.89655214 5.67816132 -3.375 3.25 C-2.74335938 2.63640625 -2.11171875 2.0228125 -1.4609375 1.390625 C-0.73777344 0.70226562 -0.73777344 0.70226562 0 0 Z " fill="#816C4D" transform="translate(145,194)"/>
<path d="M0 0 C1.98 0.66 3.96 1.32 6 2 C4.68 2.33 3.36 2.66 2 3 C2 4.98 2 6.96 2 9 C1.01 9.33 0.02 9.66 -1 10 C-0.67 6.7 -0.34 3.4 0 0 Z " fill="#DCCBB1" transform="translate(127,294)"/>
<path d="M0 0 C2.97 0 5.94 0 9 0 C9.33 1.98 9.66 3.96 10 6 C9.01 6.66 8.02 7.32 7 8 C5.66667905 5.3333581 6.32897967 3.83319697 7 1 C4.69 1 2.38 1 0 1 C0 0.67 0 0.34 0 0 Z " fill="#4F4131" transform="translate(226,286)"/>
<path d="M0 0 C1.23867161 2.61497339 2.08503983 5.25511949 3 8 C2.01 8 1.02 8 0 8 C-1.485 5.03 -1.485 5.03 -3 2 C-4.32 2 -5.64 2 -7 2 C-7 1.34 -7 0.68 -7 0 C-3.98968256 -0.93423645 -3.13349732 -1.04449911 0 0 Z " fill="#473828" transform="translate(233,294)"/>
<path d="M0 0 C1.98 0.99 1.98 0.99 4 2 C4.75 5.625 4.75 5.625 5 9 C3.68 9.33 2.36 9.66 1 10 C0.67 6.7 0.34 3.4 0 0 Z " fill="#E1C6A0" transform="translate(107,294)"/>
<path d="M0 0 C1.9451 2.91765 2.45276317 4.62537285 3 8 C1.35 8 -0.3 8 -2 8 C-1.125 1.125 -1.125 1.125 0 0 Z " fill="#C4B69C" transform="translate(244,287)"/>
<path d="M0 0 C1.9451 2.91765 2.45276317 4.62537285 3 8 C2.01 7.67 1.02 7.34 0 7 C-0.6875 4.9375 -0.6875 4.9375 -1 3 C-2.98 3 -4.96 3 -7 3 C-7 2.67 -7 2.34 -7 2 C-4.69 1.34 -2.38 0.68 0 0 Z " fill="#4A3B2B" transform="translate(173,294)"/>
<path d="M0 0 C0.99 0 1.98 0 3 0 C4.65 3.3 6.3 6.6 8 10 C7.01 10.495 7.01 10.495 6 11 C5.566875 10.071875 5.13375 9.14375 4.6875 8.1875 C3.2554627 5.48254066 2.14813084 4.0458389 0 2 C0 1.34 0 0.68 0 0 Z " fill="#483928" transform="translate(254,285)"/>
<path d="M0 0 C0.66 0 1.32 0 2 0 C0.25731793 3.96064107 -2.14674729 7.74436549 -5 11 C-5.66 11 -6.32 11 -7 11 C-5.51131293 6.39860359 -3.25370145 3.49772906 0 0 Z " fill="#E6DED3" transform="translate(137,109)"/>
<path d="M0 0 C0.66 0 1.32 0 2 0 C2.33 2.31 2.66 4.62 3 7 C1.35 7 -0.3 7 -2 7 C-1.34 4.69 -0.68 2.38 0 0 Z " fill="#827667" transform="translate(168,288)"/>
<path d="M0 0 C1.48206495 0.254496 2.96068615 0.52911762 4.4375 0.8125 C5.67306641 1.03873047 5.67306641 1.03873047 6.93359375 1.26953125 C7.95646484 1.63111328 7.95646484 1.63111328 9 2 C9.33 2.99 9.66 3.98 10 5 C6.53058454 4.54177532 3.32604951 4.10868317 0 3 C0 2.01 0 1.02 0 0 Z " fill="#D9BE95" transform="translate(118,144)"/>
<path d="M0 0 C0.99 0 1.98 0 3 0 C3 0.66 3 1.32 3 2 C2.34 2 1.68 2 1 2 C1 3.98 1 5.96 1 8 C0.01 8.33 -0.98 8.66 -2 9 C-1.125 1.125 -1.125 1.125 0 0 Z " fill="#CEC3B1" transform="translate(227,295)"/>
<path d="M0 0 C1.41377341 2.63904371 2.37240135 5.07120629 3 8 C1.35 8 -0.3 8 -2 8 C-1.125 1.125 -1.125 1.125 0 0 Z " fill="#DFC7A6" transform="translate(102,287)"/>
<path d="M0 0 C3 1 3 1 3.94921875 2.84765625 C4.19285156 3.57855469 4.43648437 4.30945313 4.6875 5.0625 C4.93886719 5.79597656 5.19023437 6.52945312 5.44921875 7.28515625 C5.63097656 7.85105469 5.81273437 8.41695313 6 9 C5.01 9.495 5.01 9.495 4 10 C3.32845067 8.71086513 2.66291141 7.41859796 2 6.125 C1.62875 5.40570313 1.2575 4.68640625 0.875 3.9453125 C0 2 0 2 0 0 Z " fill="#443625" transform="translate(144,285)"/>
<path d="M0 0 C0.66 0.33 1.32 0.66 2 1 C-1.3 3.64 -4.6 6.28 -8 9 C-8 8.01 -8 7.02 -8 6 C-6.25 4.39453125 -6.25 4.39453125 -4 2.8125 C-3.2575 2.28269531 -2.515 1.75289062 -1.75 1.20703125 C-1.1725 0.80871094 -0.595 0.41039062 0 0 Z " fill="#8B8174" transform="translate(112,242)"/>
<path d="M0 0 C2.4375 0.75 2.4375 0.75 4.4375 2.75 C2.10416667 2.75 -0.22916667 2.75 -2.5625 2.75 C-3.2225 3.74 -3.8825 4.73 -4.5625 5.75 C-4.8925 4.43 -5.2225 3.11 -5.5625 1.75 C-2.5625 -0.25 -2.5625 -0.25 0 0 Z " fill="#483927" transform="translate(184.5625,284.25)"/>
<path d="M0 0 C-0.33 0.66 -0.66 1.32 -1 2 C-3.28515625 2.6328125 -3.28515625 2.6328125 -6.0625 3.125 C-6.98160156 3.29257813 -7.90070313 3.46015625 -8.84765625 3.6328125 C-9.91306641 3.81457031 -9.91306641 3.81457031 -11 4 C-7.64191281 0.32209498 -4.88401581 -0.13200043 0 0 Z " fill="#D7CFC1" transform="translate(219,86)"/>
<path d="M0 0 C0.99 0 1.98 0 3 0 C3.66 2.31 4.32 4.62 5 7 C4.01 7.495 4.01 7.495 3 8 C2.34 6.35 1.68 4.7 1 3 C0.34 3.66 -0.32 4.32 -1 5 C-0.67 3.35 -0.34 1.7 0 0 Z " fill="#423422" transform="translate(243,285)"/>
<path d="M0 0 C0.33 0 0.66 0 1 0 C1 2.64 1 5.28 1 8 C0.34 8 -0.32 8 -1 8 C-1.625 5.125 -1.625 5.125 -2 2 C-1.34 1.34 -0.68 0.68 0 0 Z " fill="#EACBA1" transform="translate(79,290)"/>
<path d="M0 0 C0 2.31 0 4.62 0 7 C-0.99 7 -1.98 7 -3 7 C-3 5.02 -3 3.04 -3 1 C-1 0 -1 0 0 0 Z " fill="#5B4C38" transform="translate(273,289)"/>
<path d="M0 0 C0.33 0 0.66 0 1 0 C1 4.62 1 9.24 1 14 C0.67 14 0.34 14 0 14 C-0.16852247 12.39602723 -0.33474886 10.7918131 -0.5 9.1875 C-0.5928125 8.29417969 -0.685625 7.40085937 -0.78125 6.48046875 C-1 4 -1 4 -1 1 C-0.67 0.67 -0.34 0.34 0 0 Z " fill="#AD926C" transform="translate(124,288)"/>
<path d="M0 0 C0.99 0 1.98 0 3 0 C3.625 1.875 3.625 1.875 4 4 C3.34 4.66 2.68 5.32 2 6 C1.67 5.01 1.34 4.02 1 3 C0.34 3.99 -0.32 4.98 -1 6 C-1.042721 4.33388095 -1.04063832 2.66617115 -1 1 C-0.67 0.67 -0.34 0.34 0 0 Z " fill="#4C3C29" transform="translate(101,285)"/>
<path d="M0 0 C0.33 0.99 0.66 1.98 1 3 C-0.98 4.32 -2.96 5.64 -5 7 C-5.66 6.67 -6.32 6.34 -7 6 C-4.69 4.02 -2.38 2.04 0 0 Z " fill="#8E8579" transform="translate(301,150)"/>
<path d="M0 0 C0.66 1.32 1.32 2.64 2 4 C1.01 4 0.02 4 -1 4 C-1 1 -1 1 0 0 Z M-3 3 C-3 3.99 -3 4.98 -3 6 C-3.66 5.67 -4.32 5.34 -5 5 C-4.34 4.34 -3.68 3.68 -3 3 Z " fill="#DEB376" transform="translate(64,40)"/>
</svg>
